<?xml version="1.0" standalone="no"?>
<!DOCTYPE svg PUBLIC "-//W3C//DTD SVG 1.1//EN" "http://www.w3.org/Graphics/SVG/1.1/DTD/svg11.dtd" >
<svg>
<metadata>
Created by FontForge 20120731 at Mon Feb 11 08:16:31 2019
 By www
Generated by Fontographer 4.1
</metadata>
<defs>
<font id="BarbaraHand" horiz-adv-x="296" >
  <font-face 
    font-family="Barbara Hand"
    font-weight="400"
    font-stretch="normal"
    units-per-em="1000"
    panose-1="0 0 4 0 0 0 0 0 0 0"
    ascent="800"
    descent="-200"
    x-height="260"
    cap-height="471"
    bbox="-65 -284 902 786"
    underline-thickness="50"
    underline-position="-75"
    unicode-range="U+0020-F002"
  />
<missing-glyph horiz-adv-x="500" 
d="M63 0v735h375v-735h-375zM125 63h250v610h-250v-610z" />
    <glyph glyph-name=".notdef" horiz-adv-x="500" 
d="M63 0v735h375v-735h-375zM125 63h250v610h-250v-610z" />
    <glyph glyph-name=".null" horiz-adv-x="0" 
 />
    <glyph glyph-name="nonmarkingreturn" horiz-adv-x="185" 
 />
    <glyph glyph-name="space" unicode=" " horiz-adv-x="185" 
 />
    <glyph glyph-name="exclam" unicode="!" horiz-adv-x="259" 
d="M177 130q0 -4 -15 -13.5t-20 -9.5q-8 0 -18 11t-13 26.5t-3 65.5q0 185 11 210q6 13 37 13q7 0 7 -7q0 3 -9 -63q-11 -81 -11 -138q0 -86 23 -89q11 -1 11 -6zM216 -8q0 -13 -19 -13q-27 0 -43 30q-11 23 -11 45q0 9 11 13q35 7 26 7q7 0 7 -8v-25q2 -29 18 -38
q11 -6 11 -11z" />
    <glyph glyph-name="quotedbl" unicode="&#x22;" horiz-adv-x="204" 
d="M47 282l-9 88l-2 35q-1 26 20 26t21 -26q0 -6 -3 -35l-9 -88h-18zM130 282l-9 87q-3 6 -3 35q0 27 21 27q20 0 20 -26q0 -6 -3 -38l-8 -85h-18z" />
    <glyph glyph-name="numbersign" unicode="#" horiz-adv-x="426" 
d="M68 0h-34l59 161h-90l12 31h89l46 128h-89l11 30h90l58 161h35l-59 -161h103l58 161h35l-59 -161h89l-11 -30h-89l-46 -128h89l-12 -31h-89l-58 -161h-35l59 161h-103zM138 192h103l47 128h-103z" />
    <glyph glyph-name="dollar" unicode="$" horiz-adv-x="407" 
d="M182 -10q-6 -26 -17 -57q-3 -7 -14 -7q-23 0 -23 8q0 4 19 71q-103 53 -103 156q0 28 22 28q7 0 7 -10q0 -60 22.5 -94t69.5 -58q44 -22 80 -22q40 0 40 51q0 40 -28 103q-19 41 -81 154q-30 54 -30 70q0 18 17.5 30t46.5 12q17 0 39 -5q17 65 21 68q7 10 29 10
q12 0 12 -7q0 -2 -5.5 -18.5t-20.5 -64.5q64 -30 64 -44q0 -4 -9 -12t-12 -8t-33 24q-45 29 -86 29q-24 0 -24 -16q0 -15 48 -102q84 -152 84 -220q0 -40 -22 -60.5t-53 -20.5q-29 0 -60 12z" />
    <glyph glyph-name="percent" unicode="%" horiz-adv-x="444" 
d="M396 110q0 -37 -31 -75t-71 -38q-52 0 -52 55q0 42 28 77.5t71 35.5q55 0 55 -55zM368 110q0 29 -30 29q-26 0 -45.5 -26t-19.5 -56q0 -34 27 -34q24 0 46 29.5t22 57.5zM214 340q0 -37 -28 -73q-32 -40 -74 -40q-52 0 -52 55q0 41 28 76.5t71 35.5q55 0 55 -54zM186 340
q0 29 -30 29q-26 0 -45.5 -26.5t-19.5 -55.5q0 -34 27 -34q24 0 46 30t22 57zM135 -20q0 -15 -24 -15q-27 0 -27 24q0 41 76 145q134 183 204 257q6 6 35 6q8 0 8 -5q0 -10 -17 -21q-83 -90 -173 -212q-96 -131 -96 -159q0 -8 7 -12.5t7 -7.5z" />
    <glyph glyph-name="ampersand" unicode="&#x26;" horiz-adv-x="537" 
d="M388 111q-144 -144 -278 -144q-36 0 -60 16q-27 17 -27 46q0 41 54 105q60 71 161 149q-22 29 -68 101q-11 -7 -15 -7q-5 0 -10 8t-5 12q0 17 54 50q63 38 125 38q39 0 65.5 -17t26.5 -48t-34 -65q-22 -22 -98 -77q66 -87 111 -120q27 36 51 81q11 20 19 20q14 0 14 -13
q0 -25 -60 -106q31 -21 65 -33q22 -8 24 -10q-4 -8 -9 -19q-10 -19 -15 -19t-30 12q-33 17 -61 40zM364 130q-55 51 -111 129q-56 -45 -110 -97q-79 -77 -79 -119t58 -42q116 0 242 129zM194 408q19 -31 69 -106q33 24 85 68q22 21 22 41q0 43 -61 43q-60 0 -115 -46z" />
    <glyph glyph-name="quotesingle" unicode="'" horiz-adv-x="205" 
d="M94 282l-9 83q-3 28 -3 40q0 26 21 26q20 0 20 -26q0 -5 -1.5 -23l-1.5 -18l-8 -82h-18z" />
    <glyph glyph-name="parenleft" unicode="(" horiz-adv-x="333" 
d="M312 423q0 -7 -9.5 -14.5t-14.5 -7.5q-3 0 -11 17q-12 26 -27 26q-43 0 -87 -122.5t-44 -234.5q0 -96 49 -96q33 0 73 42q18 19 20 19q6 0 6 -7q0 -17 -34 -49q-39 -36 -77 -36q-73 0 -73 126q0 110 42 234q51 153 126 153q28 0 47 -23q14 -17 14 -27z" />
    <glyph glyph-name="parenright" unicode=")" horiz-adv-x="333" 
d="M146 450q3 6 15 15q17 11 36 11q79 0 79 -144q0 -102 -41 -226q-49 -148 -114 -148q-42 0 -71 49q-23 40 -23 73q0 12 8 12q3 0 12 -26q24 -73 68 -73q45 0 88 127q39 119 39 225q0 100 -39 100q-11 0 -27 -12.5t-15 -12.5q-5 0 -11.5 12t-3.5 18z" />
    <glyph glyph-name="asterisk" unicode="*" horiz-adv-x="333" 
d="M195 313q-21 -35 -49 -90q-10 -25 -18 -25q-12 0 -12 11q0 10 49 99q-87 -29 -93 -29q-18 0 -18 14q0 13 16 13h17q33 11 90 28q-34 42 -59 60q-16 12 -16 17q0 12 12 12q15 0 78 -71q5 9 52 82q12 18 16 18q13 0 13 -10l-58 -97q54 11 91 11q28 0 28 -16q0 -14 -13 -14
q2 0 -15 5q-5 2 -14 2q-23 0 -75 -10q72 -82 72 -97q0 -10 -13 -10q-4 0 -21 22q-9 18 -60 75z" />
    <glyph glyph-name="plus" unicode="+" horiz-adv-x="426" 
d="M196 0v161h-160v32h160v161h34v-161h160v-32h-160v-161h-34z" />
    <glyph glyph-name="comma" unicode="," horiz-adv-x="185" 
d="M116 -1q0 -31 -13.5 -59.5t-23.5 -28.5t-10 9q0 8 5 18q7 24 7 37q0 27 -9 40q0 2 -6 11t-6 11t12.5 10.5t15.5 8.5q8 0 18 -16t10 -41z" />
    <glyph glyph-name="hyphen" unicode="-" horiz-adv-x="333" 
d="M39 139q-1 10 8 10q8 0 47 -1t45 -1q4 0 72 1h71q13 0 13 -16q0 -9 -4 -11t-21 -2q-7 0 -107 1h-105q-13 0 -16 2.5t-3 16.5z" />
    <glyph glyph-name="hyphen" unicode="&#x2010;" horiz-adv-x="333" 
d="M39 139q-1 10 8 10q8 0 47 -1t45 -1q4 0 72 1h71q13 0 13 -16q0 -9 -4 -11t-21 -2q-7 0 -107 1h-105q-13 0 -16 2.5t-3 16.5z" />
    <glyph glyph-name="period" unicode="." horiz-adv-x="185" 
d="M96 51q28 0 28 -28t-28 -28t-28 28t28 28z" />
    <glyph glyph-name="slash" unicode="/" horiz-adv-x="333" 
d="M320 460q0 -3 -26 -50q-122 -223 -205 -404q-6 -14 -10 -17t-18 -3q-23 0 -23 5q0 -2 47 87q106 201 184 375q4 9 9.5 10.5t27.5 1.5q14 0 14 -5z" />
    <glyph glyph-name="zero" unicode="0" horiz-adv-x="352" 
d="M326 207q0 -78 -45 -146q-50 -75 -118 -75q-47 0 -77 55q-34 61 -34 176q0 206 119 206q61 0 106 -55q49 -60 49 -161zM291 209q0 90 -41 140q-37 45 -84 45q-79 0 -79 -174q0 -111 36 -162q24 -36 59 -36q40 0 74.5 57.5t34.5 129.5z" />
    <glyph glyph-name="one" unicode="1" 
d="M186 332q-31 -37 -81.5 -74t-71.5 -37q-13 0 -13 16q0 7 12 12q40 13 101 68q46 42 55 56q1 6 4.5 34t3.5 30q7 19 31 19q14 0 14 -13q0 5 -13 -64q-15 -79 -15 -208q0 -103 17 -137q13 -26 13 -25q0 -6 -8.5 -12.5t-16.5 -6.5q-38 0 -38 173q0 100 6 169z" />
    <glyph glyph-name="two" unicode="2" horiz-adv-x="389" 
d="M119 149l27 -28q64 59 111 130q51 79 51 127q0 28 -19 28q-34 0 -84 -42q-43 -37 -47 -51q-7 -24 -28 -24q-14 0 -15 11q0 10 61 71q17 17 44 35q45 29 79 29q46 0 46 -49q0 -110 -177 -285q115 -101 180 -101q24 0 38 22q8 13 16 13q11 0 11 -12q0 -17 -20 -32.5
t-52 -15.5q-74 0 -199 104q-27 -25 -72.5 -52.5t-59.5 -27.5q-6 0 -13 7t-7 11q0 13 49 84q40 58 59 58q11 0 21 -10zM121 98q-22 22 -29 30q-28 -36 -67 -99q66 39 96 69z" />
    <glyph glyph-name="three" unicode="3" horiz-adv-x="444" 
d="M222 250q80 2 141 -39q65 -42 65 -105q0 -61 -61 -97q-52 -30 -122 -30q-99 0 -166 68q-52 53 -52 91q0 29 24 29q10 0 10 -8q0 -2 -2.5 -8.5t-2.5 -7.5q0 -28 44 -76q58 -64 142 -64q66 0 108.5 29t42.5 75q0 52 -53 86q-49 31 -111 31q-38 0 -68 -8q-26 -7 -20 -7
q-3 0 -10 9t-7 12t14 8q72 27 130 63q73 44 73 73q0 24 -43 24q-90 0 -183 -87q-18 -17 -23 -17q-14 0 -14 13q0 17 70 63q82 54 156 54q34 0 54.5 -13.5t20.5 -34.5q0 -29 -53 -68q-44 -32 -104 -58z" />
    <glyph glyph-name="four" unicode="4" horiz-adv-x="444" 
d="M270 211q-11 -52 -11 -122q0 -37 14 -59l8 -9t8 -11q0 -5 -10.5 -12.5t-24.5 -7.5q-28 0 -28 98q0 49 8 113q-86 -22 -166 -62q-46 -23 -43 -23q-12 0 -12 14q0 4 15 13q8 7 24 15q40 78 61 114q29 51 86 139q8 14 24 30q16 6 24 6q9 0 9 -10q0 -4 -14 -22
q-108 -136 -152 -240q42 20 146 51q9 68 16 99q3 15 38 26q6 0 6 -6q0 -1 -9 -39q-1 -6 -13 -69q77 18 131 18q46 0 46 -15q0 -12 -25 -26q-21 -11 -28 -11q-8 0 -8 11q0 6 25 16q-55 4 -145 -19z" />
    <glyph glyph-name="five" unicode="5" horiz-adv-x="426" 
d="M165 339q-19 -50 -26 -83q47 19 99 19q73 0 121.5 -33t48.5 -80q0 -71 -89 -127q-85 -54 -181 -54q-50 0 -85 16q-39 18 -39 48q0 17 13 17q6 0 8 -12q2 -16 32.5 -30.5t74.5 -14.5q78 0 149 45q76 47 76 108q0 51 -54 76q-37 16 -79 16q-58 0 -112 -29q-34 -23 -39 -23
q-3 0 -8.5 7t-5.5 10q0 8 32 24q13 48 37 132q4 12 37 12q5 0 5 -4l-5 -14q71 3 142 50q18 12 25 12q8 0 8 -9q0 -15 -47 -41q-59 -31 -138 -38z" />
    <glyph glyph-name="six" unicode="6" horiz-adv-x="315" 
d="M290 191q0 -59 -61.5 -128.5t-118.5 -69.5q-74 0 -74 125q0 113 51 216.5t106 103.5q21 0 21 -16q0 -9 -5.5 -17t-11.5 -8q-1 0 -8 4.5t-9 4.5q-9 0 -27.5 -20t-32.5 -49q-49 -102 -49 -215q0 -99 46 -99q37 0 89.5 57t52.5 110q0 44 -39 44q-31 0 -60 -22
q-35 -27 -45 -74q-4 -18 -7 -18q-5 0 -11.5 11.5t-6.5 17.5q0 27 37 64q44 46 101 46q62 0 62 -68z" />
    <glyph glyph-name="seven" unicode="7" horiz-adv-x="333" 
d="M183 215q-73 -144 -73 -216q0 -7 5 -16t5 -10q0 -17 -30 -17q-20 0 -20 28q0 84 76 228q-21 -2 -70 -9q-21 -3 -33 -3q-11 0 -11 14q0 7 23 9q17 3 102 14q38 76 93 159q-53 6 -126 -6q-36 -6 -36 -22q0 -7 8 -11q10 -7 10 -10q0 -6 -13 -12.5t-20 -6.5q-23 0 -23 29
q0 46 71 58t147 9q7 9 22 18q22 5 37 5q6 0 6 -3l-23 -26q-67 -77 -116 -179q25 2 47 2q95 0 95 -17q0 -5 -21 -12.5t-25 -7.5q-3 0 -9 6q-14 7 -46 7q-37 0 -52 -2z" />
    <glyph glyph-name="eight" unicode="8" horiz-adv-x="333" 
d="M211 269q44 -160 44 -223q0 -76 -47 -76q-35 0 -117 91q-48 53 -48 74q0 23 32 52q56 51 101 88q-21 79 -43 146l-13 39q0 15 22 15q9 0 14 -16q1 -2 5 -14t5 -14q38 15 67 15q69 0 69 -51q0 -29 -24 -59q-16 -20 -67 -67zM184 247q-38 -28 -75 -64q-32 -31 -32 -44
q0 -15 48 -70q64 -73 85 -73q16 0 16 46t-17 115q-11 43 -25 90zM172 406q9 -25 31 -108q67 54 67 93q0 31 -39 31q-27 0 -59 -16z" />
    <glyph glyph-name="nine" unicode="9" horiz-adv-x="352" 
d="M275 343q-59 -74 -92 -103q-54 -50 -99 -50q-30 0 -30 27q0 33 68 121q72 93 125 98q-8 16 -8 21q0 7 14 13t22 6t14 -26q26 -109 26 -199q0 -101 -23 -169q-39 -112 -135 -112q-62 0 -101 49q-30 37 -30 64q0 10 9.5 17.5t14.5 7.5q6 0 12 -26q7 -31 32 -56
q30 -30 70 -30q71 0 98 88q21 67 21 151q0 61 -8 108zM263 392q0 15 -15 15q-33 0 -97 -77q-61 -73 -61 -100q0 -10 11 -10q30 0 93.5 68t68.5 104z" />
    <glyph glyph-name="colon" unicode=":" horiz-adv-x="222" 
d="M91 47q28 0 28 -28t-28 -28t-28 28t28 28zM113 222q27 0 27 -28t-27 -28q-28 0 -28 28t28 28z" />
    <glyph glyph-name="semicolon" unicode=";" horiz-adv-x="222" 
d="M107 222q28 0 28 -28t-28 -28t-28 28t28 28zM154 1q0 -30 -14 -61q-13 -27 -23 -27t-10 9q0 8 5 18q6 21 6 37q0 24 -8 40q-12 24 -12 22q0 2 12.5 10.5t15.5 8.5q7 0 17.5 -16t10.5 -41z" />
    <glyph glyph-name="less" unicode="&#x3c;" horiz-adv-x="426" 
d="M390 17l-354 144v35l354 143v-37l-313 -124l313 -124v-37z" />
    <glyph glyph-name="equal" unicode="=" horiz-adv-x="426" 
d="M36 232v31h354v-31h-354zM36 92v31h354v-31h-354z" />
    <glyph glyph-name="greater" unicode="&#x3e;" horiz-adv-x="426" 
d="M36 339l354 -144v-35l-354 -143v37l313 124l-313 124v37z" />
    <glyph glyph-name="question" unicode="?" horiz-adv-x="370" 
d="M313 419q0 -20 -40 -62q-26 -26 -53 -52q-64 -63 -91 -97q-21 -26 -21 -41q0 -25 26 -25q52 0 149 67q23 16 27 16q8 0 8 -7q0 -17 -69 -58q-75 -43 -127 -43q-22 0 -37.5 11t-15.5 29q0 24 24 56q18 23 84 92q96 100 96 110q0 8 -14 8q-47 0 -103.5 -28t-56.5 -44
q0 -3 5 -5t5 -5q0 -12 -19 -12q-21 0 -21 21q0 29 75 66q66 33 118 33q51 0 51 -30zM230 -7q0 -12 -19 -12q-27 0 -42 30q-12 22 -12 45q0 9 11 12q25 7 26 7q7 0 7 -8v-25q2 -30 18 -38q11 -6 11 -11z" />
    <glyph glyph-name="at" unicode="@" horiz-adv-x="574" 
d="M501 75l10 -13q-101 -71 -211 -71q-127 0 -202 77q-67 69 -67 168q0 113 80.5 188t201.5 75q103 0 166.5 -57t63.5 -145q0 -73 -41.5 -125.5t-96.5 -52.5q-51 0 -51 44q0 10 7 34q-37 -78 -105 -78q-39 0 -65.5 27t-26.5 74q0 58 37 109q41 55 99 55q82 0 87 -85l22 76
h21l-41 -132q-18 -58 -18 -77q0 -32 38 -32q44 0 81 49.5t37 113.5q0 79 -56 131q-59 55 -159 55q-118 0 -194 -76q-71 -72 -71 -171q0 -93 65 -158q71 -71 188 -71q103 0 201 68zM375 290q0 35 -20 56.5t-52 21.5q-48 0 -83 -50q-33 -46 -33 -99q0 -39 20.5 -61.5
t52.5 -22.5q52 0 87 61q28 49 28 94z" />
    <glyph glyph-name="A" unicode="A" horiz-adv-x="556" 
d="M318 244q42 -119 94 -184q46 -59 86 -59q26 0 41 16q11 12 16 12q8 0 8 -7q0 -11 -16 -26q-21 -20 -54 -20q-110 0 -204 251q-102 -56 -137 -91q-65 -110 -117 -164q-18 -19 -38 -19q-23 0 -23 9q4 4 14 13q101 87 172 245q55 123 55 177q0 18 -1 16q3 6 22 14
q-10 40 -10 48q0 9 13 17.5t19 8.5q5 0 5 -8q0 -66 47 -226q49 26 106 43q47 14 67 14q13 0 13 -10t-24 -15q-66 -13 -154 -55zM281 252q-14 46 -35 136q-25 -113 -70 -202q39 26 105 66z" />
    <glyph glyph-name="B" unicode="B" horiz-adv-x="611" 
d="M271 382q-112 -42 -210 -121q-32 -26 -36 -26q-3 0 -13 5.5t-10 9.5q0 5 17 18q248 183 437 183q84 0 84 -38q0 -27 -54 -75q-46 -41 -114 -78q18 3 46 3q72 0 123.5 -30t51.5 -77q0 -71 -136 -133q-77 -35 -160 -35q-13 0 -27 2q-10 69 -10 166q0 83 11 226zM293 240
q90 46 153 96q59 47 59 69q0 23 -50 23q-75 0 -150 -33q-9 -91 -12 -155zM299 19q11 -1 23 -1q80 0 158.5 45.5t78.5 91.5q0 27 -29 51q-40 33 -119 33q-64 0 -120 -31q0 -141 8 -189z" />
    <glyph glyph-name="C" unicode="C" horiz-adv-x="370" 
d="M338 450q0 -41 -43 -87t-54 -46q-12 0 -12 12q0 5 17 20q63 56 63 88q0 16 -16 16q-58 0 -138 -108q-84 -113 -84 -213q0 -47 22 -76q25 -34 73 -34q39 0 82 26q36 22 60.5 54t33.5 32q10 0 10 -11q0 -22 -58 -72q-71 -61 -147 -61q-64 0 -92 56q-17 34 -17 75
q0 119 95 242q91 118 169 118q36 0 36 -31z" />
    <glyph glyph-name="D" unicode="D" horiz-adv-x="667" 
d="M198 62q-18 -39 -43 -81q-15 -27 -42 -66q-10 -11 -19 -11q-19 0 -19 18q0 9 10 49q11 73 11 112q0 67 -7 119q-6 45 -6 43q0 12 18 12q9 0 12 -5t10 -28q21 -73 68 -118q69 134 162 319q-62 18 -118 18q-135 0 -175 -67q-3 -10 -10 -10q-12 0 -12 15q0 27 52.5 55.5
t143.5 28.5q60 0 128 -19q39 80 58 105q15 19 31 19q23 0 23 -27q0 -12 -9 -12q-2 0 -8 4.5t-7 4.5q-5 0 -13 -14q-30 -52 -47 -90q89 -37 144 -84q105 -91 105 -190q0 -72 -64.5 -118t-159.5 -46q-114 0 -217 64zM379 414l-20 -39q-54 -108 -148 -288q104 -64 211 -64
q81 0 131 41q47 38 47 94q0 77 -54.5 145t-166.5 111zM176 78q-35 31 -58 77q3 -30 3 -68q0 -76 -17 -140q23 37 72 131z" />
    <glyph glyph-name="E" unicode="E" horiz-adv-x="481" 
d="M77 145q45 27 64 37q33 17 74 34q65 26 113 26q37 0 37 -14q0 -12 -19 -12q-60 0 -106 -17q-39 -14 -70 -30q-61 -30 -95 -62q5 -85 94 -85q59 0 147 45q65 34 110 71q24 20 30 20q9 0 9 -7q0 -15 -49 -52q-54 -41 -117 -69q-79 -35 -142 -35q-50 0 -77 17q-43 27 -43 81
q0 55 33 125q38 83 108 151q96 94 174 94q21 0 37.5 -7t16.5 -17q0 -8 -12 -16t-18 -8q-5 0 -13.5 8.5t-23.5 8.5q-57 0 -138 -80q-92 -90 -124 -207z" />
    <glyph glyph-name="F" unicode="F" horiz-adv-x="537" 
d="M333 213q-2 -38 -2 -70q0 -163 46 -163q24 0 24 -7q0 -16 -35 -16q-67 0 -67 177q0 23 1 68q-36 -12 -79 -34q-18 -8 -38 -17q-11 0 -11 15q0 6 52 30q35 16 77 33q9 175 19 183q15 12 37 12q4 0 4 -3q0 2 -9 -38q-11 -49 -18 -144q75 19 122 19q61 0 61 -24
q0 -21 -25 -21q-12 0 -15 12q-4 9 -24 9q-42 0 -120 -21zM607 468q0 -10 -12.5 -21.5t-20.5 -11.5q-5 0 -10 21q-8 30 -66 30q-119 0 -263 -62q-127 -54 -192 -116q-14 -13 -21 -13q-16 0 -16 16q0 13 55 50t115 66q174 84 315 84q63 0 91 -16q25 -14 25 -27z" />
    <glyph glyph-name="G" unicode="G" horiz-adv-x="389" 
d="M287 147q-49 -63 -103 -107q-49 -40 -90 -40q-58 0 -58 62q0 64 50 165.5t120 171.5q80 80 152 80q27 0 27 -19q0 -27 -14 -27q-2 0 -13 11q-7 6 -21 6q-74 0 -169 -139t-95 -238q0 -40 35 -40q31 0 73 38.5t87 97.5l-15 18q-3 3 -3 7q0 5 15 12.5t19 7.5q8 0 21 -24
q57 -109 57 -247q0 -119 -44 -184q-29 -43 -86 -43q-54 0 -107 39q-40 29 -73 75q-27 38 -27 50q0 5 14 13.5t17 8.5q-1 0 18 -42q24 -54 78 -87q46 -30 87 -30q46 0 69 55t23 130q0 125 -44 219z" />
    <glyph glyph-name="H" unicode="H" horiz-adv-x="537" 
d="M175 441q2 19 12 24q23 12 34 12q5 0 5 -5q0 8 -13 -56q-13 -69 -17 -185q73 16 162 16q39 0 54 -3q8 0 8 -9t-8.5 -18.5t-12.5 -9.5q9 0 -25 8q-21 5 -54 5q-57 0 -124 -15q-2 -143 9 -194q8 -36 35 -61q2 -2 2 -4t-10.5 -11.5t-15.5 -9.5q-34 0 -47 85q-9 62 -7 187
q-37 -11 -82 -24q-32 -16 -47 -16q-6 0 -15 9t-9 12t62.5 22.5t91.5 24.5q0 92 12 216zM461 142q0 -61 7 -82q5 -15 24 -27l2 -2q6 -4 6 -7q0 -6 -9.5 -16t-14.5 -10q-7 0 -16 7q-25 19 -32 60q-3 18 -3 70q0 22 3 138q3 123 5 133q1 7 18.5 14t27.5 7q5 0 5 -5q0 -4 -4 -21
q-6 -20 -9 -45q-10 -78 -10 -214z" />
    <glyph glyph-name="I" unicode="I" horiz-adv-x="185" 
d="M115 259q1 -92 3 -130q5 -71 17 -92q1 -1 7.5 -8.5t6.5 -9.5q0 -4 -10.5 -13.5t-17.5 -9.5q-20 0 -30 55.5t-10 207.5q0 53 3 126q3 64 4.5 66.5t17 11t22.5 8.5q10 0 10 -10q0 6 -8 -35q-16 -80 -15 -167z" />
    <glyph glyph-name="J" unicode="J" horiz-adv-x="370" 
d="M249 436q-6 15 -16 28q-4 5 -4 8q0 7 14 13.5t22 6.5q7 0 14 -18q17 -47 24 -101q12 -95 12 -210q0 -299 -102 -299q-70 0 -127 98q-52 91 -52 185q0 37 21 37t21 -27q0 -4 -5 -9q-11 -9 -11 -15q0 -66 44 -149q50 -93 106 -93q36 0 53 54q22 71 22 177q0 92 -9 179
q-6 57 -16 100q-12 2 -25 2q-35 0 -73.5 -11.5t-38.5 -19.5q0 -7 20 -18l29 -16q0 -4 -7 -14t-13 -10q-14 0 -40 19.5t-26 35.5q0 21 48.5 42t114.5 25z" />
    <glyph glyph-name="K" unicode="K" horiz-adv-x="463" 
d="M194 127l-74 70l-8 -6q-1 -42 5 -105q8 -80 23 -98q5 -7 22 -15q5 0 5 -8q0 -7 -6.5 -16t-12.5 -9q-8 0 -20 10q-19 17 -29 52q-22 78 -22 253q0 177 9 200q7 18 39 18q5 0 5 -4t-3.5 -24t-3.5 -23q-15 -103 -12 -196q50 44 73 68q45 48 90 113q23 38 47 77q8 5 28 5
q14 0 14 -5q0 -9 -67 -100q-80 -110 -148 -167q82 -91 167 -148q82 -56 129 -56q2 0 11.5 1t10.5 1q9 0 9 -9q0 -18 -38 -18q-96 0 -243 139z" />
    <glyph glyph-name="L" unicode="L" horiz-adv-x="389" 
d="M-12 -94l50 37q17 44 36 150q20 117 20 192q0 103 -35 137q-18 18 -18 23q0 15 35 15q55 0 55 -165q0 -63 -17 -163.5t-38 -163.5q141 94 237 94q45 0 70 -17q18 -12 18 -21q0 -6 -10 -14t-17 -8t-24 15.5t-46 15.5q-53 0 -139 -46q-80 -43 -144 -98q-17 -15 -22 -15
q-6 0 -14.5 7.5t-8.5 10.5q0 5 12 14z" />
    <glyph glyph-name="M" unicode="M" horiz-adv-x="889" 
d="M797 66q26 -49 60 -49q12 0 30 9q6 3 9 3q6 0 6 -7q0 -10 -17 -19t-37 -9q-84 0 -114 158q-16 86 -14 203q-36 -49 -80 -151q-46 -105 -55 -164q1 -2 1.5 -4t1.5 -4q0 -2 -11.5 -18.5t-14.5 -16.5q-8 0 -38 57q-47 90 -110 265q-51 -260 -170 -365q-65 -58 -131 -58
q-57 0 -101 52q-37 44 -37 77q0 27 30 27q21 0 21 -14q0 -9 -7 -10q-14 -3 -14 -10q0 -25 32 -59q36 -39 79 -39q58 0 117.5 57.5t93.5 146.5q61 158 61 240q0 18 -14 52q0 2 -4.5 11.5t-4.5 10.5q0 6 14.5 15.5t20.5 9.5q5 0 14 -28q85 -267 145 -361q41 153 158 330
q0 75 7 84.5t34 9.5q7 0 7 -7q0 9 -5 -38t-5 -121q0 -187 42 -266z" />
    <glyph glyph-name="N" unicode="N" horiz-adv-x="722" 
d="M422 357q-36 -162 -74 -249q-86 -198 -226 -198q-63 0 -93 52q-21 38 -21 92q0 45 7 64q3 13 11 13q7 0 7 -8q0 -7 -2 -25.5t-2 -26.5q0 -66 28 -103q23 -31 70 -31q142 0 221 262q42 138 48 204q-8 17 -37 57q-7 9 -7 11q0 5 14 12.5t19 7.5q3 0 18 -26q39 -69 121 -236
q55 -111 87 -164q-3 21 -3 49q0 100 21 230q19 122 40 172q6 14 38 14q4 0 4 -3q0 3 -14 -40q-56 -173 -56 -391q0 -63 6.5 -78l6.5 -15q0 -4 -12 -13t-18 -9q-11 0 -96 166z" />
    <glyph glyph-name="O" unicode="O" horiz-adv-x="593" 
d="M576 240q0 -91 -104 -176q-108 -89 -236 -89q-106 0 -162 71q-44 56 -44 131q0 121 103 215q95 88 196 88q74 0 74 -40q0 -11 -11.5 -19t-20.5 -8q-6 0 -17 16q-19 27 -50 27q-67 0 -145 -75q-89 -85 -89 -190q0 -78 50 -132q53 -58 137 -58q92 0 180 68q96 74 96 169
q0 55 -40 90q-47 42 -137 42q-74 0 -133 -21q-2 0 -15 -5.5t-16 -5.5q-4 0 -4 4q0 11 49 28q57 19 121 19q86 0 147 -35q71 -42 71 -114z" />
    <glyph glyph-name="P" unicode="P" horiz-adv-x="537" 
d="M288 187q-1 -41 2 -89q3 -52 3 -42q5 -44 24 -44q7 0 15.5 6.5t13.5 6.5q10 0 10 -9q0 -10 -14 -20.5t-31 -10.5q-42 0 -52 78q-5 38 -5 134q0 85 11 208q-72 -35 -231 -146q-6 -3 -13 -3q-12 0 -12 8q0 11 67 56q72 49 109 70q67 38 126 56q87 26 153 26q95 0 95 -56
q0 -37 -34.5 -83.5t-87.5 -85.5q-70 -53 -149 -60zM289 214q35 3 57 10q38 12 77 43q32 25 62 63q36 47 36 77q0 39 -63 39q-74 0 -152 -26q-17 -85 -17 -206z" />
    <glyph glyph-name="Q" unicode="Q" horiz-adv-x="593" 
d="M311 97l68 -64q153 79 153 205q0 55 -40 90q-47 42 -137 42q-74 0 -133 -21q-2 0 -15 -5.5t-16 -5.5q-4 0 -4 4q0 11 49 28q57 19 121 19q91 0 154.5 -40t63.5 -105q0 -78 -73 -152q-49 -48 -104 -76l68 -57q54 -45 102 -45q2 0 11.5 1.5t10.5 1.5q5 -1 5 -6
q0 -19 -37 -19q-65 0 -198 106q-41 -15 -80 -20q-21 -3 -45 -3q-106 0 -161 70q-45 56 -45 132q0 121 103 215q95 88 196 88q74 0 74 -40q0 -11 -11.5 -19t-20.5 -8q-6 0 -17 16q-19 27 -50 27q-67 0 -145 -75q-89 -85 -89 -190q0 -76 49 -131q53 -59 140 -59q31 0 80 14
l-63 49q-10 10 -10 11q0 5 15 16t22 11q5 0 9 -5z" />
    <glyph glyph-name="R" unicode="R" horiz-adv-x="648" 
d="M326 407q-25 -86 -42 -211q-14 -103 -14 -158q0 -28 3 -48q5 -15 5 -19q0 -15 -20 -15q-18 0 -21 24q-1 8 -1 47q0 108 45 367q-191 -64 -245 -139q-7 -9 -15 -9q-15 0 -15 12q0 10 25 33q37 35 109 71q183 90 338 90q134 0 134 -58q0 -52 -84 -114q-78 -58 -154 -73
q81 -97 178 -149q65 -36 93 -36q20 0 20 -6q0 -8 -12.5 -13t-22.5 -5q-29 0 -96 35q-76 40 -136 95q-36 33 -63 68q-21 27 -21 31q0 8 35 13q4 0 11 -12q49 -2 128 55t79 100q0 45 -87 45q-91 0 -154 -21z" />
    <glyph glyph-name="S" unicode="S" horiz-adv-x="389" 
d="M213 299l-25 70q-20 56 -20 73q0 20 19.5 31.5t47.5 11.5q57 0 123 -39q62 -37 62 -61q0 -9 -13 -19.5t-21 -10.5q-13 0 -13 13q0 1 1 6.5t1 6.5q0 19 -45 48q-49 31 -93 31q-26 0 -26 -17q0 -24 37 -130q68 -196 68 -270q0 -105 -82 -105q-69 0 -149 89q-73 81 -73 130
q0 33 34 33q22 -1 22 -11q0 -6 -9 -6q-24 0 -24 -17q0 -37 80 -120q66 -69 120 -69q45 0 45 71q0 73 -67 261z" />
    <glyph glyph-name="T" unicode="T" horiz-adv-x="463" 
d="M261 437q49 -150 49 -306q0 -170 -74 -170q-47 0 -72 68q-18 46 -18 85q0 16 11 16q8 0 11 -20q21 -126 66 -126t45 139q0 162 -53 298q-119 -65 -164 -127q-9 -12 -15 -12q-20 0 -20 12q0 7 27 35q37 38 96 76q167 106 320 106q75 0 75 -23q0 -7 -12 -22.5t-19 -15.5
q-6 0 -9 12q-5 23 -42 23q-102 0 -202 -48z" />
    <glyph glyph-name="U" unicode="U" horiz-adv-x="630" 
d="M509 267q-73 -181 -148 -283q-40 -55 -77 -55q-20 0 -26.5 13t-6.5 45q0 53 10 171q11 109 25 255q-90 -2 -156 -27q-82 -30 -82 -83q0 -20 11.5 -34.5t22.5 -14.5t11 -6q0 -23 -17 -23t-35 21t-18 51q0 72 99 111q66 26 165 35q0 28 2.5 31.5t15.5 10t21 6.5t8 -8
q0 6 -7 -45q-44 -319 -44 -439q0 -42 12 -42q31 0 122 171q88 167 88 210q0 13 -15 115q0 7 16.5 14.5t23.5 7.5q6 0 7 -57q3 -296 46 -374q6 -12 28 -20q11 -4 11 -7q0 -4 -9.5 -17t-17.5 -13q-29 0 -49 49q-22 56 -37 231z" />
    <glyph glyph-name="V" unicode="V" horiz-adv-x="556" 
d="M275 399q-122 -3 -178 -50q-41 -34 -41 -83q0 -35 21 -60q17 -20 31 -20q1 0 6.5 1t6.5 1q9 0 9 -12q0 -20 -22 -20q-26 0 -51 32t-25 75q0 88 98 133q47 22 145 36q1 13 3 29q2 5 11.5 13t16.5 8q10 0 10 -12q-2 -21 -3 -26q-6 -55 -6 -135q0 -155 23 -246
q21 -82 54 -82q27 0 51 59q42 101 42 202q0 78 -26 119q-1 1 -10 12.5t-9 13.5q0 5 12.5 11t17.5 6q15 0 31 -36q19 -45 19 -109q0 -112 -52 -230q-37 -84 -82 -84q-59 0 -84 141q-23 128 -19 313z" />
    <glyph glyph-name="W" unicode="W" horiz-adv-x="593" 
d="M94 279l55 208q2 4 19 9.5t23 5.5q4 0 5 -4q0 -1 -9 -25q-46 -119 -91 -320q-38 -168 -38 -194q0 -4 3 -4q16 0 158 252q51 91 51 104q0 -1 -4 17q0 7 19 16.5t28 9.5q7 0 7 -8l-1 -48q0 -22 8 -78q11 -68 26 -116q18 -58 37 -78q15 -18 41 -18q37 0 61 43t24 104
q0 77 -33 146q-30 62 -56 62q-1 0 -6.5 -1.5t-6.5 -1.5q-4 0 -11 8.5t-7 17.5q0 13 17 13q54 0 99 -89q41 -81 41 -157q0 -69 -36 -119q-37 -54 -93 -54q-67 0 -102 106q-13 38 -37 172q-76 -127 -184 -300q-38 -53 -62 -53q-17 0 -17 16q0 15 15 100q22 125 57 258z" />
    <glyph glyph-name="X" unicode="X" horiz-adv-x="481" 
d="M210 186q-34 -54 -74 -152q-50 -124 -64 -215q-4 -25 -7 -31q-4 -9 -17 -9q-17 0 -17 18q0 47 55 188.5t107 223.5q-77 120 -109 165l-22 30q0 3 16 12.5t22 9.5q5 0 8 -7q37 -60 87 -141q5 -8 21 -34q149 218 259 218q52 0 52 -53q0 -23 -10 -23q-5 0 -14 17
q-17 31 -42 31q-92 0 -230 -214q92 -134 195 -195q16 -10 16 -15q0 -12 -14 -12q-31 0 -90 48q-66 54 -128 140z" />
    <glyph glyph-name="Y" unicode="Y" horiz-adv-x="537" 
d="M257 412q-60 -1 -128 -25q-75 -27 -75 -56q0 -12 15 -17t15 -14q0 -16 -20 -16q-16 0 -28 11.5t-12 28.5q0 76 229 118q-4 8 -4 14t17 12q13 4 19 4q8 0 9 -20q2 -89 5 -207q4 -80 12 -194q0 -11 6 -11q4 0 22 29q60 96 98 224q-3 11 -18 43l-5.5 11t-4.5 10q0 5 16 13.5
t20 8.5q8 0 19 -41q29 -109 29 -232q0 -118 -36 -214q-37 -99 -120 -99q-107 0 -167 132q-30 67 -30 125q0 20 31 20q9 0 9 -9q0 -3 -1.5 -16.5t-1.5 -15.5q0 -83 50.5 -147.5t111.5 -64.5q75 0 106 119q18 68 18 152q0 90 -16 149q-38 -107 -93 -196q-25 -40 -48 -40
q-15 0 -20 11.5t-8 51.5q-8 149 -21 348z" />
    <glyph glyph-name="Z" unicode="Z" horiz-adv-x="574" 
d="M337 233l-99 -102q163 -107 262 -107q18 0 27.5 4.5t14.5 4.5q40 0 40 -13q0 -8 -25 -16t-57 -8q-67 0 -151 38q-49 22 -135 75q-137 -120 -172 -120q-7 0 -17.5 8.5t-10.5 14.5q3 10 11 27q40 90 42 160q0 10 9 12q14 3 20 3q5 0 26 -12q41 -23 92 -55q62 60 81 82
q-24 -4 -48 -4q-22 0 -22 12q0 9 18 10q38 2 75 6q70 83 96 126q8 13 33 13q19 0 19 -8q0 -6 -108 -128q20 2 95 10q3 0 19.5 2t19.5 2q12 0 12 -11q0 -15 -28 -16q-34 -1 -139 -10zM137 80l52 45q-42 24 -90 57q-15 -88 -49 -163q21 11 87 61zM489 434q0 -5 -11 -14t-15 -9
q-20 7 -29 11q-27 8 -77 8q-94 0 -133 -33q-30 -26 -30 -58q0 -13 7 -24q7 -14 7 -17q0 -8 -20 -8q-30 0 -30 42q0 54 49 87.5t147 33.5q41 0 85 -5q50 -6 50 -14z" />
    <glyph glyph-name="bracketleft" unicode="[" horiz-adv-x="333" 
d="M88 -7q-15 55 -15 124q0 135 48 351q75 29 136 29q28 0 56 -6q34 -7 34 -20q0 -12 -13 -12q-3 0 -16 3.5t-15 3.5q-17 5 -43 5q-61 0 -105 -22q-12 -41 -26 -126q-21 -119 -21 -196q0 -66 13 -125q60 18 106 18q40 0 76 -4q14 0 14 -8q0 -7 -6 -8.5t-34 -1.5
q-90 0 -149 -23q-36 -14 -30 -14q-9 0 -27 23q0 2 17 9z" />
    <glyph glyph-name="backslash" unicode="\" horiz-adv-x="333" 
d="M13 460q0 5 14 5q32 0 37 -12q77 -172 184 -375q47 -89 47 -87q0 -5 -20 -5q-22 0 -28 12q-37 80 -110 228l-120 224q-4 7 -4 10z" />
    <glyph glyph-name="bracketright" unicode="]" horiz-adv-x="333" 
d="M114 438q-10 0 -76 4q-14 1 -14 9q0 7 6 8t34 1q91 0 149 24q15 7 30 13q9 0 27 -22q0 -3 -17 -10q15 -52 15 -124q0 -135 -48 -351q-81 -29 -136 -29q-28 0 -55 6q-35 7 -35 20q0 12 13 12q5 0 31 -7q15 -4 43 -4q61 0 105 21q11 35 27 127q20 117 20 195q0 71 -13 126
q-59 -19 -106 -19z" />
    <glyph glyph-name="asciicircum" unicode="^" horiz-adv-x="426" 
d="M76 214l119 297h35l120 -297h-34l-103 258l-103 -258h-34z" />
    <glyph glyph-name="underscore" unicode="_" horiz-adv-x="500" 
d="M0 -125v50h500v-50h-500z" />
    <glyph glyph-name="grave" unicode="`" horiz-adv-x="148" 
d="M32 392q0 11 12 11q10 0 53 -34q38 -30 38 -38q0 -11 -11 -11q-7 0 -57 39q-11 8 -30 24q-5 3 -5 9z" />
    <glyph glyph-name="a" unicode="a" 
d="M186 253q-7 35 -7 34q0 9 12 14q9 5 17 5q11 0 11 -14q0 -66 15 -150q16 -90 34 -114q0 -1 11 -9t11 -10q0 -13 -15 -13q-32 0 -49 51q-19 57 -28 126q-28 -47 -69 -100q-58 -74 -84 -74t-26 24q0 51 60 141.5t100 90.5q3 0 7 -2zM188 211q0 15 -14 15q-26 0 -76 -80
t-50 -109q0 -6 4 -6q15 0 75.5 81t60.5 99z" />
    <glyph glyph-name="b" unicode="b" horiz-adv-x="278" 
d="M73 188q24 40 58 64.5t65 24.5q51 0 51 -63q0 -57 -47.5 -140.5t-82.5 -83.5q-27 0 -45 39q-26 55 -26 174q0 47 6 133q6 81 8.5 86.5t15.5 12.5t21 7t8 -8q-5 -22 -12 -50q-17 -85 -20 -196zM80 124q0 -31 10 -62q12 -40 31 -40q24 0 61 72t37 116q0 38 -32 38
q-26 0 -63 -35q-44 -42 -44 -89z" />
    <glyph glyph-name="c" unicode="c" horiz-adv-x="204" 
d="M149 70l33 42q6 6 10 6q8 0 8 -9q0 -16 -38 -61q-44 -54 -86 -54q-56 0 -56 75q0 69 44.5 136.5t85.5 67.5q24 0 24 -17q0 -10 -10.5 -21.5t-18.5 -11.5q-7 0 -7 5q0 2 3.5 9t3.5 8q0 3 -4 3q-18 0 -51 -53q-36 -61 -36 -120q0 -54 27 -54q30 0 68 49z" />
    <glyph glyph-name="d" unicode="d" horiz-adv-x="315" 
d="M256 444l-6 -41q-6 -41 -6 -111q0 -120 18 -209q14 -67 33 -67q11 0 11 -5t-7.5 -11.5t-16.5 -6.5q-28 0 -44 61q-9 37 -18 122q-29 -64 -86.5 -123.5t-89.5 -59.5q-23 0 -23 26q0 62 65.5 152t114.5 90q8 0 15 -5q-4 104 -4 156q0 26 9 32.5t21 6.5q14 0 14 -7zM206 216
q0 16 -14 16q-15 0 -45 -28.5t-52 -63.5q-45 -70 -45 -107q0 -10 7 -10q23 0 86 79.5t63 113.5z" />
    <glyph glyph-name="e" unicode="e" horiz-adv-x="222" 
d="M67 96q-4 -75 43 -75q31 0 87 45q19 15 24 15q7 0 7 -8q0 -9 -20 -27q-58 -52 -103 -52q-71 0 -71 95q0 64 25 123q29 70 76 70q33 0 33 -35t-27 -77q-29 -45 -74 -74zM67 129q27 18 49.5 54t22.5 55q0 16 -12 16q-18 0 -37 -45q-17 -39 -23 -80z" />
    <glyph glyph-name="f" unicode="f" horiz-adv-x="222" 
d="M121 253q64 29 113 29q13 0 13 -5q0 -11 -5 -14q-14 -14 -26 -14q-1 0 -7.5 2.5t-7.5 2.5q-29 0 -80 -27q5 -180 18 -267q17 -112 55 -112q2 0 11.5 3t10.5 3q8 0 8 -7q0 -5 -9.5 -11.5t-22.5 -6.5q-67 0 -89 148q-15 101 -15 236q-53 -33 -60 -33q-15 0 -15 14
q0 6 75 46q0 119 24 170.5t61 51.5q21 0 21 -16q0 -10 -6.5 -18t-11.5 -8q-1 0 -5.5 2t-5.5 2q-14 0 -27 -35q-17 -48 -17 -136z" />
    <glyph glyph-name="g" unicode="g" 
d="M209 151q-21 -45 -82 -101t-86 -56q-21 0 -21 20q0 55 60.5 155.5t86.5 89.5q-7 15 -7 18q0 7 11 13t19 6q9 0 12.5 -6.5t14.5 -38.5q49 -143 49 -275q0 -101 -38 -157q-34 -51 -89 -51q-52 0 -99 46q-38 38 -38 55q0 12 11 12q6 0 26 -27q47 -62 99 -62q54 0 79 60
q17 42 17 104q0 120 -25 195zM194 198q0 5 -6.5 20.5t-12.5 15.5q-25 0 -74 -85q-47 -81 -47 -112q0 -6 4 -6q18 0 75 64q61 67 61 103z" />
    <glyph glyph-name="h" unicode="h" horiz-adv-x="278" 
d="M109 416l-3 -24q-8 -51 -28 -238q-5 -58 -12 -136q13 38 48 123q39 96 48 106t25 10q5 0 6 -4l-1 -17.5t-1 -21.5q0 -66 16 -117q3 -14 13 -36q15 -33 29 -33q7 0 15.5 7t12.5 7q8 0 8 -7q0 -9 -13.5 -19.5t-28.5 -10.5q-33 0 -57 58q-23 54 -25 126q-40 -95 -78 -192
q-9 -24 -13.5 -29t-15.5 -5q-17 0 -17 9q0 32 13.5 221.5t17.5 211.5q1 7 14.5 12.5t19.5 5.5q7 0 7 -7z" />
    <glyph glyph-name="i" unicode="i" horiz-adv-x="148" 
d="M69 129q0 -109 28 -114q16 -3 16 -8q0 -18 -29 -18q-27 0 -37 49q-9 44 -9 129q0 66 9 75q13 13 28 13q10 0 10 -9q0 9 -8 -28t-8 -89zM79 353q0 -14 1 -19q0 -1 1 -5.5t1 -5.5q0 -9 -15 -9q-17 0 -19 31q0 -5 0 42q0 20 30 20q9 0 9 -6q0 -3 -6 -24q-2 -11 -2 -24z" />
    <glyph glyph-name="j" unicode="j" horiz-adv-x="167" 
d="M113 -4q0 -222 -85 -222q-48 0 -75 61q-18 42 -18 75q0 16 12 16q9 0 17 -38q19 -87 64 -87q27 0 39 47q15 60 15 141q0 166 -24 238q-4 12 -4 14q0 15 31 15q7 0 9 -11q19 -102 19 -249zM67 334q0 -21 -15 -21q-12 0 -16 25q-3 20 -12.5 43t-9.5 16q0 10 20 10
q15 0 21 -16q12 -41 12 -57z" />
    <glyph glyph-name="k" unicode="k" horiz-adv-x="278" 
d="M104 99q-10 -11 -28 -32q-4 -25 8 -44q1 -1 8 -7.5t7 -8.5q0 -16 -20 -16q-19 0 -26 31t-7 98q0 66 16 264q2 21 18.5 27.5t22.5 6.5t6 -6q-7 -36 -16 -84q-18 -108 -20 -226q18 20 54 77q35 54 44 63t29 9q9 0 9 -8q0 -12 -86 -120q37 -28 142 -96q21 -12 23 -15
q0 -3 -8.5 -12t-11.5 -9q-11 0 -164 108z" />
    <glyph glyph-name="l" unicode="l" horiz-adv-x="130" 
d="M126 9q0 -12 -22 -12q-45 0 -58 99q-10 74 -10 196q0 93 8.5 105t31.5 12q9 0 9 -9q0 3 -8 -43q-9 -52 -9 -135q0 -168 28 -197q8 -8 25 -10q5 -1 5 -6z" />
    <glyph glyph-name="m" unicode="m" horiz-adv-x="426" 
d="M53 4l7 48q20 137 20 168q0 9 -6 9q-8 0 -23 -29q-10 -20 -19 -20q-12 0 -12 8q0 9 18 38q23 35 48 35t25 -32q0 -55 -23 -185q44 92 82 148q24 35 34 44t22 9q14 0 14 -8q0 -1 -5 -29q-11 -62 -11 -126q0 -12 3 -12q7 0 46 71q33 61 41 80q18 43 40 43q9 0 9 -7
q0 -1 -2.5 -32.5t-2.5 -37.5q0 -162 44 -162q2 0 10.5 2.5t9.5 2.5q7 0 7 -8t-11.5 -15t-25.5 -7q-43 0 -57 73q-10 54 -7 124q-29 -65 -68 -131q-22 -36 -43 -36q-17 0 -21 13q-3 10 -3 43q0 49 7 107q-32 -44 -93 -160q-24 -45 -29 -45q-25 5 -25 16z" />
    <glyph glyph-name="n" unicode="n" horiz-adv-x="278" 
d="M60 47q30 61 81 153q26 46 33 55q11 14 26 14q10 0 10 -8q0 9 -8 -31q-6 -30 -6 -63q0 -41 7 -78q13 -69 44 -69q11 0 23 9q9 7 13 7q8 0 8 -9q0 -10 -16 -18.5t-33 -8.5q-77 0 -77 171q0 4 2 28q-42 -73 -93 -183q-12 -27 -19 -27q-3 0 -14 5.5t-11 11.5q0 13 9 115.5
t12 108t31 16.5q6 0 6 -10q0 -2 -8 -48q-16 -94 -20 -141z" />
    <glyph glyph-name="o" unicode="o" horiz-adv-x="259" 
d="M123 253q11 7 25 7q34 0 62 -30q30 -33 30 -83q0 -52 -33 -98q-37 -52 -92 -52q-44 0 -70 39q-24 35 -24 86q0 55 28 98q27 40 59 40q8 0 15 -7zM129 235q-4 -21 -18 -21q-3 0 -6 3q-9 8 -14 8q-12 0 -24 -25q-15 -28 -15 -65q0 -51 24 -81q21 -27 50 -27q30 0 56 31
t26 75q0 45 -22.5 75.5t-56.5 26.5z" />
    <glyph glyph-name="p" unicode="p" 
d="M84 177q84 84 141 84q55 0 55 -47q0 -27 -26 -73q-32 -56 -82 -97q-57 -47 -99 -48q-3 -97 3 -136q5 -33 18 -33q2 0 10.5 4t9.5 4q6 0 6 -9q0 -8 -10.5 -16t-22.5 -8q-26 0 -36.5 35t-10.5 129q0 68 16 281q1 12 2 15t6 6q12 5 27 6q10 0 10 -7q0 -13 -17 -90zM80 133
q-2 -21 -8 -110q61 7 119 75q55 65 55 114q0 24 -25 24q-26 0 -72 -36q-41 -32 -69 -67z" />
    <glyph glyph-name="q" unicode="q" 
d="M199 149q-19 -42 -67 -93q-54 -57 -86 -57q-24 0 -24 23q0 59 85 161q50 60 81 60q8 0 12 -3q0 5 -1.5 30l-1.5 25q0 7 13 13t20 6q9 0 9 -8q0 -4 -3 -32q-3 -32 -3 -36q-3 -48 -3 -103q0 -66 6 -138q10 -107 29 -126q5 -5 11.5 -8t6.5 -7q0 -7 -8 -14.5t-15 -7.5
q-31 0 -46 90.5t-15 224.5zM59 29q20 0 78.5 72.5t58.5 102.5q0 12 -11 12q-24 0 -78.5 -74t-54.5 -105q0 -8 7 -8z" />
    <glyph glyph-name="r" unicode="r" horiz-adv-x="259" 
d="M115 112q24 82 57 123q37 46 67 46q31 0 31 -34q0 -18 -18 -18q-11 0 -19 15q-3 10 -6 10q-16 0 -49 -49q-38 -56 -38 -114q0 -25 8 -54q6 -20 6 -22q0 -6 -7 -13.5t-13 -7.5q-14 0 -24 38q-34 127 -66 166l-16 16q0 6 12 13.5t19 7.5q14 0 25 -30q13 -40 31 -93z" />
    <glyph glyph-name="s" unicode="s" horiz-adv-x="241" 
d="M214 199q1 -7 -7 -12.5t-13 -5.5q-6 0 -16.5 19t-34.5 32q-20 10 -34 10q-10 0 -10 -7q0 -18 61 -106q17 -24 33 -47q22 -34 22 -53t-15 -32t-41 -13q-52 0 -98.5 33t-46.5 68q0 30 24 30q9 0 9 -8q0 -2 -3 -12t-3 -11q0 -25 44 -51q41 -24 74 -24q25 0 25 15
q0 16 -50 88q-46 67 -58 87q-15 26 -15 42q0 25 33 25q41 0 79 -22.5t41 -44.5z" />
    <glyph glyph-name="t" unicode="t" horiz-adv-x="241" 
d="M88 219v103q0 3 -1 19.5t-1 19.5q0 12 16 21q11 6 18 6q10 0 10 -12l-7 -57q-2 -20 -5 -84q71 31 94 31q10 0 10 -6q0 -8 -12 -18t-16 -10q-1 0 -5.5 1t-5.5 1q-19 0 -66 -27q-2 -63 4 -132q5 -59 33 -59q20 0 41 37q11 19 17 19q9 0 9 -11q0 -16 -20 -40
q-25 -29 -55 -29q-42 0 -52 77q-5 39 -7 122q-29 -18 -60 -37q-12 0 -12 17q0 5 7 9q42 27 66 39z" />
    <glyph glyph-name="u" unicode="u" 
d="M254 35l8 2q8 0 8 -7q0 -5 -8.5 -14.5t-17.5 -9.5q-19 0 -28 28q-7 21 -14 82q-34 -43 -46 -58q-21 -23 -48 -47q-22 -19 -35 -19q-28 0 -28 41q0 25 8 181q1 14 13 22t21 8q12 0 12 -9q0 4 -7 -28q-15 -69 -15 -165q0 -15 8 -15q9 0 51 47q60 67 60 94q0 31 -2 51.5
t-2 24.5q0 9 12.5 16.5t20.5 7.5q9 0 9 -11q0 -2 -1.5 -13.5t-1.5 -12.5q-2 -27 -2 -50q0 -47 6 -91q7 -55 19 -55z" />
    <glyph glyph-name="v" unicode="v" horiz-adv-x="259" 
d="M80 196q0 -76 13.5 -127.5t32.5 -51.5q22 0 42.5 51.5t20.5 102.5q0 24 -10 24q-20 2 -20 13q0 22 32 22q26 0 26 -56t-23 -114q-29 -70 -71 -70q-48 0 -65 87q-13 67 -13 157q0 17 7 24q15 16 26 16t11 -11q0 5 -6 -27q-3 -16 -3 -40z" />
    <glyph glyph-name="w" unicode="w" horiz-adv-x="370" 
d="M183 142q-89 -218 -135 -218q-23 0 -23 52q0 114 64 255q26 57 44 57q14 0 14 -7q0 6 -32 -62q-29 -62 -47 -138q-16 -65 -16 -106q0 -21 4 -21t18 24q39 68 94 197q12 27 26 27q6 0 8 -5.5t6 -35.5q8 -60 36 -107q25 -43 47 -43q20 0 20 45q0 48 -18 92q-16 39 -33 46
q-11 3 -11 8q0 7 6.5 16t10.5 9q13 0 39 -46q32 -57 32 -122q0 -74 -45 -74q-41 0 -74 58q-28 47 -35 99z" />
    <glyph glyph-name="x" unicode="x" horiz-adv-x="278" 
d="M272 292q34 0 34 -32q0 -23 -13 -23q-11 0 -11 13q-2 17 -10 17q-29 0 -81 -66q-25 -35 -50 -71q50 -62 79 -89t29 -29q0 -3 -8.5 -11t-13.5 -8q-7 0 -38 34q-6 6 -33 39t-32 38q-14 -23 -54 -103q-10 -19 -12 -19t-12 6t-10 10q0 12 70 129q-36 48 -67 72q-16 12 -16 17
q0 7 10.5 13t16.5 6q10 0 28 -21q15 -17 46 -61q44 70 76 98q38 41 72 41z" />
    <glyph glyph-name="y" unicode="y" 
d="M201 168q-67 -194 -111 -194q-28 0 -34 47q-9 69 -9 163q0 19 13 27.5t21 8.5q5 0 5 -6q0 -15 -4 -39q-3 -43 -3 -68q0 -104 14 -104q11 0 49 86q40 90 40 131q0 20 -14 48q-14 21 -14 20q0 5 13.5 12.5t16.5 7.5q17 0 41 -90q32 -121 32 -229q0 -200 -113 -200
q-60 0 -119 53q-54 50 -54 87q0 16 13 16q7 0 14 -20q14 -42 59.5 -77.5t90.5 -35.5q44 0 61 45t17 111q0 94 -25 200z" />
    <glyph glyph-name="z" unicode="z" horiz-adv-x="333" 
d="M145 72q-5 -4 -32 -27.5t-31 -26.5q-41 -33 -51 -33q-5 0 -12 6t-7 9t35 82q15 34 21 42q9 12 22 12q14 0 54 -30q33 32 112 119q-13 2 -51 0q-47 -3 -47 -14q0 -5 9.5 -7.5t9.5 -11.5q0 -15 -15 -15q-12 0 -22 9t-10 23q0 31 60 39q18 2 83 2q10 20 14 23.5t22 3.5
q12 0 12 -6q0 -16 -79 -103q-33 -34 -78 -80q48 -37 75 -51q43 -22 61 -22q1 0 11 3.5t12 3.5q9 0 9 -10q0 -20 -33 -20q-62 0 -154 80zM82 99l-37 -78q35 27 79 66q-26 22 -34 22q-2 0 -8 -10z" />
    <glyph glyph-name="braceleft" unicode="{" horiz-adv-x="333" 
d="M143 186q15 9 26 9q37 0 37 -45q0 -23 -14 -102l-20 -114q-10 -60 -10 -90q0 -49 45 -49q23 0 46 16q37 26 51 88q5 22 12 22q12 0 12 -26q0 -47 -37.5 -87t-87.5 -40q-28 0 -48 18q-23 21 -23 57q0 35 25 180q18 105 18 124q0 20 -12 20q-9 0 -31 -16q-15 -11 -24 -11
q-10 0 -10 9q0 -1 15 40l2 5q10 28 10 58q0 6 -1 39.5t-1 38.5q0 86 19 139q21 59 78 59q31 0 61 -20t30 -37q0 -12 -10 -12q-5 0 -17 12q-32 32 -66 32q-64 0 -64 -175q0 -5 1.5 -36t1.5 -37q0 -33 -14 -69z" />
    <glyph glyph-name="bar" unicode="|" horiz-adv-x="167" 
d="M66 -214v1000h34v-1000h-34z" />
    <glyph glyph-name="braceright" unicode="}" horiz-adv-x="333" 
d="M231 110q-15 -9 -26 -9q-37 0 -37 45q0 23 14 102l20 114q10 60 10 90q0 49 -45 49q-23 0 -46 -16q-37 -26 -51 -88q-5 -22 -12 -22q-12 0 -12 26q0 47 37.5 87t87.5 40q28 0 48 -18q23 -21 23 -57q0 -35 -25 -180q-18 -105 -18 -124q0 -20 12 -20q9 0 31 16q17 12 24 12
q10 0 10 -10q0 1 -15 -40l-2 -5q-10 -28 -10 -58q0 -6 1 -39.5t1 -38.5q0 -86 -19 -139q-21 -59 -78 -59q-31 0 -61 20t-30 37q0 12 10 12q5 0 17 -12q32 -32 66 -32q64 0 64 175q0 5 -1.5 36.5t-1.5 36.5q0 33 14 69z" />
    <glyph glyph-name="asciitilde" unicode="~" horiz-adv-x="426" 
d="M52 129h-25q7 54 40 77q20 14 44 14q25 0 110 -28q27 -9 66 -21q11 -4 27 -4q49 0 61 58h24q-13 -90 -84 -90q-23 0 -99 25q-85 28 -103 28q-51 0 -61 -59z" />
    <glyph glyph-name="quotesinglbase" unicode="&#x201a;" horiz-adv-x="185" 
d="M116 -1q0 -31 -13.5 -59.5t-23.5 -28.5t-10 9q0 8 5 18q7 24 7 37q0 27 -9 40q0 2 -6 11t-6 11t12.5 10.5t15.5 8.5q8 0 18 -16t10 -41z" />
    <glyph glyph-name="florin" unicode="&#x192;" horiz-adv-x="444" 
d="M350 480q39 0 39 -33q0 -30 -19 -30q-11 0 -11 8q4 14 4 17q0 11 -14 11q-20 0 -35 -33q-22 -50 -51 -149q41 6 72 6q26 0 47.5 -5.5t21.5 -12.5t-10 -16t-16 -9q-1 0 -17.5 8t-38.5 8q-30 0 -68 -6q-81 -270 -112 -326q-39 -70 -79 -70q-34 0 -60 49q-21 40 -21 70
q0 20 12 20q6 0 11 -24q7 -32 22 -59q18 -32 37 -32q32 0 76 112q28 73 79 252q-44 -17 -123 -46q-8 -4 -15 -4q-12 0 -12 14q0 10 31.5 21.5t125.5 41.5q44 140 61 173q24 44 63 44z" />
    <glyph glyph-name="quotedblbase" unicode="&#x201e;" horiz-adv-x="278" 
d="M146 -2q0 -31 -13.5 -59.5t-23.5 -28.5t-10 9q0 8 5 18q7 24 7 37q0 27 -9 40q0 2 -6 11t-6 11t12.5 10.5t15.5 8.5q8 0 18 -16t10 -41zM232 -1q0 -30 -14 -61q-13 -27 -22 -27q-11 0 -11 9q5 19 5 18q7 20 7 37q0 24 -8 40q-12 18 -12 22q0 2 12 10.5t16 8.5q7 0 17 -16
t10 -41z" />
    <glyph glyph-name="ellipsis" unicode="&#x2026;" horiz-adv-x="1000" 
d="M167 51q28 0 28 -28t-28 -28t-28 28t28 28zM500 51q28 0 28 -28t-28 -28t-28 28t28 28zM833 51q28 0 28 -28t-28 -28t-28 28t28 28z" />
    <glyph glyph-name="dagger" unicode="&#x2020;" horiz-adv-x="370" 
d="M208 269q-5 -50 -5 -122q0 -57 7 -103q3 -10 8 -10q15 0 15 -5q0 -9 -9 -19t-20 -10q-24 0 -31 51q-5 36 -5 96q0 63 4 111q-54 -22 -82 -36q-33 -17 -38 -17t-10.5 6t-5.5 9q0 4 12 10l5 2q53 24 120 50q7 106 10 116q2 7 13.5 14t14.5 7q8 0 8 -10q0 -12 -11 -117
q63 21 124 21q14 0 14 -6q0 -5 -7.5 -15t-12.5 -10q-6 0 -14 4q-4 1 -11 1q-37 0 -93 -18z" />
    <glyph glyph-name="daggerdbl" unicode="&#x2021;" horiz-adv-x="370" 
d="M203 137q1 -57 7 -89q3 -14 8 -14q15 0 15 -5q0 -9 -9 -19t-20 -10q-23 0 -29 38q-7 44 -7 87q-77 -29 -87 -39q-1 0 -13 -6t-14 -6q-5 0 -10.5 6t-5.5 10q0 13 130 59q0 67 4 109q-54 -22 -82 -36q-33 -17 -38 -17t-10.5 6t-5.5 9q0 4 12 10l5 2q53 24 120 50
q7 106 10 116q2 7 13.5 14t14.5 7q8 0 8 -10q0 -12 -11 -117q63 21 124 21q14 0 14 -6q0 -5 -7.5 -15t-12.5 -10q-6 0 -14 4q-4 1 -11 1q-37 0 -93 -18q-5 -48 -5 -108q60 19 118 19q22 0 22 -4t-8 -15t-13 -11q-2 0 -12.5 2t-12.5 2q-43 0 -94 -17z" />
    <glyph glyph-name="circumflex" unicode="&#x2c6;" horiz-adv-x="148" 
d="M100 361q-28 -23 -41 -35q-16 -15 -26 -15q-13 0 -13 9q0 11 68 64q-8 16 -8 17q0 5 9 10t12 5t10 -16q20 -47 46 -64q14 -9 14 -14q0 -9 -11 -9q-16 0 -34 16t-26 32z" />
    <glyph glyph-name="perthousand" unicode="&#x2030;" horiz-adv-x="648" 
d="M400 110q0 -37 -31 -75t-71 -38q-52 0 -52 55q0 42 28.5 77.5t70.5 35.5q55 0 55 -55zM372 110q0 29 -30 29q-25 0 -45 -26t-20 -56q0 -34 28 -34q24 0 45.5 29.5t21.5 57.5zM218 340q0 -37 -28 -73q-32 -40 -74 -40q-52 0 -52 55q0 41 28.5 76.5t70.5 35.5q55 0 55 -54z
M190 340q0 29 -30 29q-25 0 -45 -26.5t-20 -55.5q0 -34 28 -34q24 0 45.5 29.5t21.5 57.5zM604 110q0 -37 -31 -75t-71 -38q-52 0 -52 55q0 42 28.5 77.5t70.5 35.5q55 0 55 -55zM576 110q0 29 -30 29q-26 0 -45.5 -26t-19.5 -56q0 -34 27 -34q24 0 46 29.5t22 57.5z
M140 -20q0 -15 -25 -15q-26 0 -26 24q0 39 76 145q121 169 203 257q6 6 36 6q8 0 8 -5q0 -3 -17 -21q-83 -89 -174 -212q-95 -130 -95 -159q0 -7 7 -12t7 -8z" />
    <glyph glyph-name="Scaron" unicode="&#x160;" horiz-adv-x="389" 
d="M213 299l-25 70q-20 56 -20 73q0 20 19.5 31.5t47.5 11.5q57 0 123 -39q62 -37 62 -61q0 -9 -13 -19.5t-21 -10.5q-13 0 -13 13q0 1 1 6.5t1 6.5q0 19 -45 48q-49 31 -93 31q-26 0 -26 -17q0 -24 37 -130q68 -196 68 -270q0 -105 -82 -105q-69 0 -149 89q-73 81 -73 130
q0 33 34 33q22 -1 22 -11q0 -6 -9 -6q-24 0 -24 -17q0 -37 80 -120q66 -69 120 -69q45 0 45 71q0 73 -67 261zM308 570q19 14 41 35q16 15 26 15q13 0 13 -10q0 -14 -68 -63l8 -17q0 -5 -9 -10t-12 -5q-4 0 -10 15q-20 48 -46 65q-14 9 -14 14q0 9 11 9q16 0 34 -16t26 -32z
" />
    <glyph glyph-name="guilsinglleft" unicode="&#x2039;" horiz-adv-x="222" 
d="M90 114q45 -11 72 -47q20 -27 20 -45q0 -14 -14 -14q-4 0 -20 26q-34 57 -88 61q-19 1 -24 3t-5 11q0 13 28 17q35 5 79 78q19 31 28 31q14 0 14 -14t-26 -49q-30 -39 -64 -58z" />
    <glyph glyph-name="OE" unicode="&#x152;" horiz-adv-x="796" 
d="M482 280l13 132q2 5 18 12q13 5 17 5q3 0 3 -3q0 -1 -1.5 -11.5t-1.5 -12.5q85 40 155 40t70 -31q0 -30 -18 -30q-4 0 -12.5 16.5t-45.5 16.5q-66 0 -154 -44q-6 -53 -15 -144q81 20 173 20q47 0 59 -6q8 -4 8 -14q0 -19 -16 -19l-22.5 6t-59.5 6q-66 0 -143 -18
q-2 -28 -2 -54q0 -77 13 -104q11 -21 37 -21q45 0 141 44q67 31 71 31q9 0 9 -10q0 -7 -23 -20q-151 -83 -224 -83q-33 0 -45 40q-9 27 -10 87q-37 -50 -95 -86q-77 -48 -163 -48q-95 0 -144 61q-39 49 -39 119q0 109 92 193q84 76 170 76q65 0 65 -35q0 -10 -9.5 -17
t-17.5 -7q-7 0 -17 14q-17 24 -44 24q-52 0 -120 -61q-84 -75 -84 -175q0 -72 46.5 -120.5t118.5 -48.5q93 0 178 77q54 49 63 115q-1 0 -43 -15q-22 -11 -30 -11t-8 18q0 7 18 14q34 12 59 20q-10 45 -41 68q-43 31 -116 31q-55 0 -121 -23q-7 -2 -15 -5q-6 0 -6 7
q0 10 45 25q51 17 106 17q103 0 158 -58z" />
    <glyph glyph-name="quoteleft" unicode="&#x2018;" horiz-adv-x="185" 
d="M79 343q0 30 14 61q13 27 22 27q11 0 11 -9q-5 -19 -5 -18q-7 -23 -7 -36q0 -22 8 -41q13 -19 13 -21q0 -3 -12.5 -11.5t-15.5 -8.5q-8 0 -18 16t-10 41z" />
    <glyph glyph-name="quoteright" unicode="&#x2019;" horiz-adv-x="185" 
d="M106 375q0 -31 -13.5 -60t-23.5 -29t-10 9q0 13 5 18q7 25 7 37q0 23 -9 40q0 2 -6 11t-6 11q0 3 12.5 11t15.5 8q8 0 17 -14q11 -18 11 -42z" />
    <glyph glyph-name="quotedblleft" unicode="&#x201c;" horiz-adv-x="278" 
d="M177 344q0 30 14 61q13 27 22 27q11 0 11 -9q-5 -19 -5 -18q-7 -23 -7 -37q0 -21 8 -40q12 -18 12 -21t-12 -11.5t-15 -8.5q-8 0 -18 16t-10 41zM90 343q0 31 14 61q13 27 23 27t10 -9q-3 -14 -5 -18q-6 -19 -6 -36q0 -21 8 -41q0 -1 6 -10t6 -11q0 -3 -12.5 -11.5
t-15.5 -8.5q-8 0 -18 16t-10 41z" />
    <glyph glyph-name="quotedblright" unicode="&#x201d;" horiz-adv-x="278" 
d="M102 375q0 -31 -13.5 -60t-23.5 -29t-10 9q0 13 5 18q7 25 7 37q0 27 -9 40q0 2 -6 11t-6 11q0 3 12.5 11t15.5 8q8 0 17 -14q11 -18 11 -42zM188 375q0 -30 -13.5 -59t-22.5 -29q-11 0 -11 9q0 1 2.5 9t2.5 9q7 20 7 37q0 24 -8 40q-12 24 -12 22q0 2 12 10.5t16 8.5
q7 0 17 -16t10 -41z" />
    <glyph glyph-name="bullet" unicode="&#x2022;" horiz-adv-x="352" 
d="M176 387q53 0 91.5 -38t38.5 -92t-38 -92t-92 -38t-92 38t-38 92t38.5 92t91.5 38z" />
    <glyph glyph-name="endash" unicode="&#x2013;" horiz-adv-x="500" 
d="M0 148h500v-26h-500v26z" />
    <glyph glyph-name="emdash" unicode="&#x2014;" horiz-adv-x="1000" 
d="M130 148h740v-26h-740v26z" />
    <glyph glyph-name="tilde" unicode="&#x2dc;" horiz-adv-x="148" 
d="M195 368q-4 -10 -17 -21q-18 -16 -38 -16q-16 0 -53 24q-16 8 -22 8q-9 0 -28 -17q-7 -6 -12 -6q-9 0 -9 11q0 9 18.5 25t33.5 16q10 0 35 -15q33 -20 39 -20q9 0 24 13t20 13q13 0 9 -15z" />
    <glyph glyph-name="trademark" unicode="&#x2122;" horiz-adv-x="704" 
d="M203 246v227h-90v18h198v-18h-90v-227h-18zM361 246v245h28l87 -221l88 221h28v-245h-18v225l-89 -225h-18l-88 225v-225h-18z" />
    <glyph glyph-name="scaron" unicode="&#x161;" horiz-adv-x="241" 
d="M214 199q1 -7 -7 -12.5t-13 -5.5q-6 0 -16.5 19t-34.5 32q-20 10 -34 10q-10 0 -10 -7q0 -18 61 -106q17 -24 33 -47q22 -34 22 -53t-15 -32t-41 -13q-52 0 -98.5 33t-46.5 68q0 30 24 30q9 0 9 -8q0 -2 -3 -12t-3 -11q0 -25 44 -51q41 -24 74 -24q25 0 25 15
q0 16 -50 88q-46 67 -58 87q-15 26 -15 42q0 25 33 25q41 0 79 -22.5t41 -44.5zM132 366q19 14 41 35q16 15 26 15q13 0 13 -10q0 -14 -68 -63l8 -17q0 -5 -9 -10t-12 -5q-4 0 -10 15q-20 48 -46 65q-14 9 -14 14q0 9 11 9q16 0 34 -16t26 -32z" />
    <glyph glyph-name="guilsinglright" unicode="&#x203a;" horiz-adv-x="222" 
d="M132 114q-34 19 -64 58q-25 35 -25 49t13 14q9 0 28 -31q24 -40 39 -53q20 -20 56 -28q12 -3 12 -13q0 -11 -9 -13q-2 -1 -19 -2q-54 -4 -88 -61q-16 -26 -21 -26q-14 0 -14 14q0 18 20 45q27 36 72 47z" />
    <glyph glyph-name="oe" unicode="&#x153;" horiz-adv-x="426" 
d="M212 58q-35 -61 -97 -61q-45 0 -71 39q-24 34 -24 86q0 57 29 99q27 39 59 39q9 0 14 -7q11 7 25 7q26 0 49 -18q28 -23 39 -63q38 75 103 75q42 0 42 -35q0 -37 -50 -86q-44 -43 -87 -63q6 -47 52 -47q33 0 83 41q21 17 25 17q9 0 9 -9q0 -14 -40 -42q-45 -32 -82 -32
q-65 0 -78 60zM239 96q48 24 81 64q27 33 27 52q0 16 -16 16q-29 0 -59 -38q-27 -34 -33 -94zM128 235q-4 -21 -18 -21q-3 0 -6 3q-9 8 -14 8q-12 0 -24 -25q-15 -28 -15 -65q0 -50 24 -81q22 -27 50 -27q29 0 55.5 30.5t26.5 75.5t-22.5 75.5t-56.5 26.5z" />
    <glyph glyph-name="Ydieresis" unicode="&#x178;" horiz-adv-x="537" 
d="M257 412q-60 -1 -128 -25q-75 -27 -75 -56q0 -12 15 -17t15 -14q0 -16 -20 -16q-16 0 -28 11.5t-12 28.5q0 76 229 118q-4 8 -4 14t17 12q13 4 19 4q8 0 9 -20q2 -89 5 -207q4 -80 12 -194q0 -11 6 -11q4 0 22 29q60 96 98 224q-3 11 -18 43l-5.5 11t-4.5 10q0 5 16 13.5
t20 8.5q8 0 19 -41q29 -109 29 -232q0 -118 -36 -214q-37 -99 -120 -99q-107 0 -167 132q-30 67 -30 125q0 20 31 20q9 0 9 -9q0 -3 -1.5 -16.5t-1.5 -15.5q0 -83 50.5 -147.5t111.5 -64.5q75 0 106 119q18 68 18 152q0 90 -16 149q-38 -107 -93 -196q-25 -40 -48 -40
q-15 0 -20 11.5t-8 51.5q-8 149 -21 348zM363 610q11 0 11 -12q0 -5 -13 -48q-6 -19 -16 -19q-12 0 -12 12q0 8 10 43q7 24 20 24zM418 604q11 -1 11 -12q0 -5 -7 -31.5t-8 -28.5q-3 -14 -15 -14t-12 11q0 -4 14 59q6 17 17 16z" />
    <glyph glyph-name="exclamdown" unicode="&#xa1;" horiz-adv-x="259" 
d="M111 135q0 4 15 13.5t19 9.5q8 0 18 -11t13 -26.5t3 -66.5q0 -186 -11 -209q-6 -13 -36 -13q-8 0 -8 7q0 -10 10 63q11 81 11 138q0 86 -23 89q-11 1 -11 6zM100 199l1 25q-2 28 -18 38q-12 6 -12 11q0 13 20 13q27 0 42 -30q12 -23 12 -46q0 -8 -11 -12q-21 -7 -26 -7
q-8 0 -8 8z" />
    <glyph glyph-name="cent" unicode="&#xa2;" horiz-adv-x="278" 
d="M128 0q-12 -38 -29 -89q-8 -23 -18 -23q-14 0 -14 11q0 3 29 97q-74 -7 -74 49q0 45 42 110q49 75 115 103q16 58 21 67t22 9q13 0 13 -5q0 1 -25 -68q33 7 33 -22q0 -24 -28 -24q-18 0 -18 12q0 8 -4 8q-28 0 -71 -48q-28 -31 -46 -71q-17 -36 -17 -58q0 -38 42 -38
q27 0 64 23q23 15 33.5 26.5t17.5 11.5q9 0 9 -8q0 -11 -24 -32q-30 -25 -73 -41z" />
    <glyph glyph-name="sterling" unicode="&#xa3;" horiz-adv-x="407" 
d="M207 258l-48 -7q-8 0 -8 18q0 5 19 8l52 7q67 103 88 128q31 37 58 37q39 0 39 -37q0 -18 -13 -38.5t-22 -20.5q-12 0 -12 10q2 4 5 9.5t5 9.5q9 9 9 25q0 13 -13 13q-16 0 -50 -46q-16 -22 -60 -89q41 3 80 3q22 0 22 -7q0 -12 -14 -14q-43 -2 -103 -5q-61 -99 -82 -135
q110 -158 192 -158q29 0 56 17q14 9 16 9q8 0 8 -7q0 -10 -25 -24q-28 -16 -61 -16q-89 0 -204 149q-34 -59 -87 -139q-23 -35 -38 -35q-17 0 -17 12q0 -7 22 77q11 42 39 164q8 40 43 40q9 0 18 -17q10 -20 23 -43q27 44 63 102zM124 121q-23 38 -34 59q-33 -129 -55 -202
q41 56 89 143z" />
    <glyph glyph-name="currency" unicode="&#xa4;" horiz-adv-x="426" 
d="M52 117l47 46q-35 46 -35 95t35 94l-47 46l20 21l47 -46q48 33 93 33q52 0 95 -34l46 47l21 -21l-47 -47q35 -45 35 -93q0 -50 -35 -95l47 -46l-21 -21l-46 46q-46 -33 -94 -33q-50 0 -94 34l-47 -47zM213 375q-49 0 -83.5 -34.5t-34.5 -83.5q0 -48 34.5 -82.5
t83.5 -34.5q48 0 83 34.5t35 82.5q0 49 -35 83.5t-83 34.5z" />
    <glyph glyph-name="yen" unicode="&#xa5;" horiz-adv-x="444" 
d="M241 106q-9 -82 -9 -106q0 -20 5 -26t8 -11q0 -4 -11.5 -16.5t-19.5 -12.5q-20 0 -20 44q0 23 12 116q-19 -8 -66 -31q-25 -14 -30 -14q-12 0 -12 11q0 6 16 14q29 16 96 46q7 51 10 64q-56 -19 -85 -34q-1 -1 -28 -17q-23 -14 -25 -14q-14 0 -14 12q0 10 51 37
q35 18 99 40q-24 58 -74 136q-48 75 -77 102q-25 2 -44 -2q-2 -1 -16 -5.5t-15 -4.5q-6 0 -6 12q0 32 73 32q21 0 27 -2.5t16 -15.5q82 -106 133 -205q39 129 95 223q6 9 22 19t21 10q6 0 9 -10q-5 -7 -11 -17q-80 -124 -112 -260q95 27 136 27q5 0 5 -13q0 -14 -6 -14
q-65 -5 -139 -26q-4 -20 -10 -62q56 18 122 18q13 0 13 -12q0 -9 -4.5 -11t-23.5 -2q-63 -1 -111 -19z" />
    <glyph glyph-name="brokenbar" unicode="&#xa6;" horiz-adv-x="167" 
d="M66 -89v250h34v-250h-34zM66 411v250h34v-250h-34z" />
    <glyph glyph-name="section" unicode="&#xa7;" horiz-adv-x="407" 
d="M136 141q184 -142 184 -209q0 -57 -84 -57q-75 0 -158 38.5t-83 71.5q0 12 12 19t25 7q15 0 15 -10q0 -4 -8 -9q-14 -5 -14 -10q0 -17 75.5 -49t133.5 -32q51 0 51 32q0 29 -41 72q-24 25 -115 106q-41 37 -58 55.5t-17 29.5q0 16 24 28q28 14 79 14q47 0 95 -12t48 -21
q0 -4 -6.5 -12.5t-11.5 -8.5q-7 0 -35 17q-37 15 -87 15q-68 0 -68 -18q0 -17 78.5 -46.5t123.5 -29.5q58 0 58 28q0 59 -173 198q-22 17 -53 45q-10 11 -10 22q0 22 39 34q32 10 74 10t85 -9q50 -11 50 -26q0 -9 -10 -18t-19 -9q-7 0 -16 19q-3 7 -33 12.5t-61 5.5
q-66 0 -66 -18q0 -10 44 -47q95 -80 128 -116q54 -57 54 -97q0 -58 -89 -58q-56 0 -160 43z" />
    <glyph glyph-name="dieresis" unicode="&#xa8;" horiz-adv-x="148" 
d="M91 406q11 0 11 -12q0 -5 -13 -48q-6 -19 -16 -19q-12 0 -12 12q0 8 10 43q7 24 20 24zM146 400q11 -1 11 -12q0 -5 -7 -31.5t-8 -28.5q-3 -14 -15 -14t-12 11q0 -4 14 59q6 17 17 16z" />
    <glyph glyph-name="copyright" unicode="&#xa9;" horiz-adv-x="574" 
d="M287 480q104 0 178.5 -74t74.5 -179q0 -104 -74.5 -178t-178.5 -74t-178.5 74t-74.5 178q0 105 74.5 179t178.5 74zM287 463q-97 0 -166.5 -69t-69.5 -167q0 -97 69 -166t167 -69q97 0 166.5 69t69.5 166q0 98 -69.5 167t-166.5 69zM404 281h-18q-8 39 -37 60
q-25 18 -58 18q-50 0 -80.5 -37.5t-30.5 -89.5q0 -58 33 -94.5t82 -36.5q75 0 94 70h18q-6 -36 -36.5 -62t-75.5 -26q-56 0 -95.5 41t-39.5 106q0 63 36 104.5t94 41.5q47 0 79 -28t35 -67z" />
    <glyph glyph-name="ordfeminine" unicode="&#xaa;" horiz-adv-x="185" 
d="M112 408l-2 14q0 17 23 17q12 0 13 -26q1 -31 10 -79q10 -58 22.5 -65.5t12.5 -11.5q0 -14 -15 -14q-35 0 -52 95q-66 -93 -93 -93q-22 0 -22 20q0 29 34 81q37 56 69 62zM36 271q16 12 47.5 55t31.5 50q0 4 -3 4q-9 0 -35 -33q-29 -38 -41 -76z" />
    <glyph glyph-name="guillemotleft" unicode="&#xab;" horiz-adv-x="370" 
d="M89 114q45 -11 72 -47q20 -27 20 -45q0 -14 -13 -14q-6 0 -21 26q-33 57 -88 61q-28 2 -28 14q0 13 27 17q35 5 79 78q19 31 29 31q13 0 13 -14t-26 -49q-30 -39 -64 -58zM229 114q45 -11 72 -47q20 -27 20 -45q0 -14 -14 -14q-5 0 -21 26q-34 57 -88 61q-28 2 -28 14
q0 13 28 17q34 5 78 78q19 31 29 31q13 0 13 -14t-26 -49q-29 -39 -63 -58z" />
    <glyph glyph-name="logicalnot" unicode="&#xac;" horiz-adv-x="426" 
d="M36 232v31h354v-173h-34v142h-320z" />
    <glyph glyph-name="minus" unicode="&#xad;" horiz-adv-x="426" 
d="M36 162v31h354v-31h-354z" />
    <glyph glyph-name="minus" unicode="&#x2212;" horiz-adv-x="426" 
d="M36 162v31h354v-31h-354z" />
    <glyph glyph-name="registered" unicode="&#xae;" horiz-adv-x="574" 
d="M241 423h47q30 0 42.5 -10.5t12.5 -29.5q0 -25 -24 -33q22 -10 22 -38q1 -10 5 -26h-16q-1 3 -2.5 19.5t-2.5 18.5q-6 20 -42 20h-28v-58h-14v137zM255 409v-51h33q41 0 41 26q0 25 -43 25h-31zM287 467q-47 0 -80 -33t-33 -79q0 -47 33 -80.5t80 -33.5t80 33.5t33 80.5
t-33 79.5t-80 32.5zM160 354q0 53 37.5 90t89.5 37q53 0 90 -37t37 -90q0 -52 -37 -89.5t-90 -37.5q-52 0 -89.5 37.5t-37.5 89.5z" />
    <glyph glyph-name="macron" unicode="&#xaf;" horiz-adv-x="148" 
d="M29 375l76 1q72 1 77 -8q1 -3 1 -8q0 -11 -22 -11q-11 0 -67.5 -1t-65.5 -1q-28 0 -28 14q0 11 29 14z" />
    <glyph glyph-name="macron" unicode="&#x2c9;" horiz-adv-x="148" 
d="M29 375l76 1q72 1 77 -8q1 -3 1 -8q0 -11 -22 -11q-11 0 -67.5 -1t-65.5 -1q-28 0 -28 14q0 11 29 14z" />
    <glyph glyph-name="degree" unicode="&#xb0;" 
d="M148 527q42 0 71.5 -29.5t29.5 -71.5t-29.5 -71.5t-71.5 -29.5q-41 0 -71 29.5t-30 71.5q0 43 30 72t71 29zM148 504q-31 0 -54 -22.5t-23 -55.5q0 -32 22.5 -54.5t54.5 -22.5q33 0 55.5 23t22.5 54q0 32 -23 55t-55 23z" />
    <glyph glyph-name="plusminus" unicode="&#xb1;" horiz-adv-x="426" 
d="M196 64v130h-160v31h160v130h34v-130h160v-31h-160v-130h-34zM36 0v31h354v-31h-354z" />
    <glyph glyph-name="twosuperior" unicode="&#xb2;" horiz-adv-x="259" 
d="M100 191q-57 -46 -79 -46q-5 0 -12.5 7t-7.5 10q0 7 41 62q20 27 31 27q9 0 29 -20q91 92 91 146q0 9 -7 9q-16 0 -44 -23q-24 -20 -27 -27q-7 -19 -22 -19t-15 12q0 13 39 47q44 38 76 38q33 0 33 -34q0 -66 -103 -169q64 -55 99 -55q9 0 20 13q4 8 12 8q12 0 12 -12
q0 -14 -13.5 -24t-33.5 -10q-51 0 -119 60zM81 209l-11 9q-15 -16 -41 -51q28 18 52 42z" />
    <glyph glyph-name="threesuperior" unicode="&#xb3;" horiz-adv-x="259" 
d="M38 245l-2 -10q0 -13 24 -40q32 -37 80 -37q37 0 60.5 15.5t23.5 40.5q0 29 -28 46.5t-63 17.5q-19 0 -34 -3q-18 -6 -19 -6q-4 0 -9.5 7t-5.5 12t18 12q29 11 64 31q47 27 47 41q0 10 -20 10q-48 0 -101 -47q-17 -15 -22 -15q-13 0 -13 13t44 42q50 33 95 33
q50 0 50 -34q0 -29 -75 -70q44 -6 74 -30.5t30 -59.5q0 -39 -37 -61q-32 -20 -77 -20q-60 0 -102 41q-33 33 -33 59q0 22 20 22q11 0 11 -10z" />
    <glyph glyph-name="acute" unicode="&#xb4;" horiz-adv-x="148" 
d="M168 391q0 -5 -19 -20q-68 -52 -73 -52q-11 0 -11 11q0 9 38 39q42 33 53 33q12 0 12 -11z" />
    <glyph glyph-name="paragraph" unicode="&#xb6;" horiz-adv-x="370" 
d="M287 390q-19 -62 -28 -143q-14 -124 -14 -184q0 -23 6.5 -38t6.5 -17q0 -6 -7.5 -12.5t-14.5 -6.5q-22 0 -22 50q0 97 23 263l2 14q-48 -64 -100.5 -110t-78.5 -46t-26 23q0 47 76 143q82 103 143 103q12 0 41 -8q19 -7 34 -7q3 0 15 2.5t14 2.5q14 0 14 -7
q-4 -8 -11 -20q-50 -105 -50 -247q0 -51 10 -90q0 -2 4 -15t4 -16q0 -6 -8.5 -14.5t-14.5 -8.5q-23 0 -23 104q0 183 43 279q-12 0 -38 6zM253 390q0 13 -13 13q-35 0 -105 -86t-70 -119q0 -7 7 -7q23 0 102 84.5t79 114.5z" />
    <glyph glyph-name="periodcentered" unicode="&#xb7;" horiz-adv-x="185" 
d="M96 236q28 0 28 -28t-28 -28t-28 28t28 28z" />
    <glyph glyph-name="periodcentered" unicode="&#x2219;" horiz-adv-x="185" 
d="M96 236q28 0 28 -28t-28 -28t-28 28t28 28z" />
    <glyph glyph-name="cedilla" unicode="&#xb8;" horiz-adv-x="148" 
d="M46 3l18 1q-15 -35 -24 -53q18 13 34 13q38 0 38 -45q0 -30 -20.5 -47.5t-46.5 -17.5q-16 0 -30 7.5t-14 16.5q0 8 8 9q-4 0 14 -8q11 -5 21 -5q19 0 30.5 13t11.5 30q0 24 -21 24q-11 0 -25.5 -9.5t-17.5 -9.5q-7 0 -7 8q0 11 31 73z" />
    <glyph glyph-name="onesuperior" unicode="&#xb9;" horiz-adv-x="259" 
d="M148 332q-67 -56 -84 -56q-13 0 -13 16q0 7 16 14q35 15 84 68q3 36 6 41q8 12 22 12t14 -13q-5 -25 -11 -59q-5 -47 -5 -116q0 -45 7 -62q10 -25 10 -20q0 -17 -21 -17q-28 0 -28 107q0 37 3 85z" />
    <glyph glyph-name="ordmasculine" unicode="&#xba;" horiz-adv-x="167" 
d="M88 412q15 3 17 3q25 0 45 -19q23 -22 23 -54q0 -34 -24 -62q-27 -32 -67 -32q-33 0 -52 22.5t-19 56.5q0 35 20.5 61.5t46.5 26.5q4 0 10 -3zM96 389q-9 -13 -17 -13q-4 0 -7 2.5t-7 4.5q-4 0 -11 -12q-9 -16 -9 -36q0 -28 14 -43.5t30 -15.5q18 0 34 17t16 41
q0 25 -13.5 40.5t-29.5 14.5z" />
    <glyph glyph-name="guillemotright" unicode="&#xbb;" horiz-adv-x="370" 
d="M141 114q-34 19 -64 58q-26 35 -26 49t13 14q10 0 29 -31q24 -40 39 -53q20 -20 56 -28q12 -3 12 -13q0 -11 -10 -13q-1 -1 -19 -2q-54 -4 -88 -61q-16 -26 -21 -26q-13 0 -13 14q0 18 20 45q27 36 72 47zM280 114q-34 19 -64 58q-25 35 -25 49t13 14q10 0 29 -31
q24 -40 38 -54q20 -19 56 -27q12 -3 12 -13q0 -11 -9 -13q-2 -1 -19 -2q-54 -4 -88 -61q-16 -26 -21 -26q-14 0 -14 14q0 18 20 45q27 36 72 47z" />
    <glyph glyph-name="onequarter" unicode="&#xbc;" horiz-adv-x="833" 
d="M632 210l-6 -23q-1 -7 -6 -34q49 10 70 10q33 0 33 -15q0 -9 -14.5 -18t-22.5 -9q-14 0 -9 16q-33 -3 -62 -11q-6 -34 -6 -68q0 -20 8 -31q0 -1 5.5 -7t5.5 -8q0 -7 -9 -12.5t-17 -5.5q-23 0 -23 64q0 29 4 59q-45 -12 -82 -30t-36 -18q-12 0 -12 14q0 6 24 20
q16 32 61 110q27 43 36.5 53t23.5 10q10 0 10 -11q0 -4 -10 -17q-49 -66 -83 -128q36 14 71 24q6 56 11 62q10 13 26 13q9 0 9 -9zM241 247q0 37 3 85q-67 -56 -84 -56q-13 0 -13 16q0 7 16 14q35 15 84 68q3 36 6 41q8 12 22 12t14 -13q-5 -25 -11 -59q-5 -47 -5 -116
q0 -45 7 -62q10 -25 10 -20q0 -17 -21 -17q-28 0 -28 107zM255 -11q0 41 76 145q134 183 204 257q6 6 35 6q8 0 8 -5q0 -10 -17 -21q-83 -90 -173 -212q-96 -131 -96 -159q0 -8 7 -12.5t7 -7.5q0 -15 -24 -15q-27 0 -27 24z" />
    <glyph glyph-name="onehalf" unicode="&#xbd;" horiz-adv-x="833" 
d="M241 247q0 37 3 85q-67 -56 -84 -56q-13 0 -13 16q0 7 16 14q35 15 84 68q3 36 6 41q8 12 22 12t14 -13q-5 -25 -11 -59q-5 -47 -5 -116q0 -45 7 -62q10 -25 10 -20q0 -17 -21 -17q-28 0 -28 107zM644 -15q-51 0 -119 60q-57 -46 -79 -46q-5 0 -12.5 7t-7.5 10q0 7 41 62
q20 27 31 27q9 0 29 -20q91 92 91 146q0 9 -7 9q-16 0 -44 -23q-24 -20 -27 -27q-7 -19 -22 -19t-15 12q0 13 39 47q44 38 76 38q33 0 33 -34q0 -66 -103 -169q64 -55 99 -55q9 0 20 13q4 8 12 8q12 0 12 -12q0 -14 -13.5 -24t-33.5 -10zM506 63l-11 9q-15 -16 -41 -51
q28 18 52 42zM255 -11q0 41 76 145q134 183 204 257q6 6 35 6q8 0 8 -5q0 -10 -17 -21q-83 -90 -173 -212q-96 -131 -96 -159q0 -8 7 -12.5t7 -7.5q0 -15 -24 -15q-27 0 -27 24z" />
    <glyph glyph-name="threequarters" unicode="&#xbe;" horiz-adv-x="833" 
d="M138 245l-2 -10q0 -13 24 -40q32 -37 80 -37q37 0 60.5 15.5t23.5 40.5q0 29 -28 46.5t-63 17.5q-19 0 -34 -3q-18 -6 -19 -6q-4 0 -9.5 7t-5.5 12t18 12q29 11 64 31q47 27 47 41q0 10 -20 10q-46 0 -101 -47q-18 -15 -22 -15q-13 0 -13 13t44 42q50 33 95 33
q50 0 50 -34q0 -29 -75 -70q44 -6 74.5 -30.5t30.5 -59.5q0 -39 -38 -61q-32 -20 -77 -20q-60 0 -102 41q-33 33 -33 59q0 22 20 22q11 0 11 -10zM670 210l-6 -23q-1 -7 -6 -34q49 10 70 10q33 0 33 -15q0 -9 -14.5 -18t-22.5 -9q-14 0 -9 16q-33 -3 -62 -11q-6 -34 -6 -68
q0 -20 8 -31q0 -1 5.5 -7t5.5 -8q0 -7 -9 -12.5t-17 -5.5q-23 0 -23 64q0 29 4 59q-45 -12 -82 -30t-36 -18q-12 0 -12 14q0 6 24 20q16 32 61 110q27 43 36.5 53t23.5 10q10 0 10 -11q0 -4 -10 -17q-49 -66 -83 -128q36 14 71 24q6 56 11 62q10 13 26 13q9 0 9 -9zM293 -11
q0 41 76 145q134 183 204 257q6 6 35 6q8 0 8 -5q0 -10 -17 -21q-83 -90 -173 -212q-96 -131 -96 -159q0 -8 7 -12.5t7 -7.5q0 -15 -24 -15q-27 0 -27 24z" />
    <glyph glyph-name="questiondown" unicode="&#xbf;" horiz-adv-x="370" 
d="M37 -154q0 16 16 35q12 14 78 80q62 62 90 96q22 27 22 42q0 24 -26 24q-52 0 -149 -67q-23 -16 -27 -16q-8 0 -8 8q0 17 69 58q74 43 126 43q23 0 38.5 -11.5t15.5 -29.5q0 -24 -25 -56q-16 -22 -83 -92q-96 -101 -96 -110q0 -8 14 -8q47 0 106 29q54 27 54 43q0 3 -5 5
t-5 6q0 11 19 11q21 0 21 -20q0 -30 -75 -67q-64 -32 -119 -32q-51 0 -51 29zM149 198l1 25q-2 29 -18 38q-11 6 -11 11q0 13 19 13q26 0 42 -30q12 -22 12 -45q0 -9 -11 -13q-3 0 -13.5 -3.5t-12.5 -3.5q-8 0 -8 8z" />
    <glyph glyph-name="Agrave" unicode="&#xc0;" horiz-adv-x="556" 
d="M318 244q42 -119 94 -184q46 -59 86 -59q26 0 41 16q11 12 16 12q8 0 8 -7q0 -11 -16 -26q-21 -20 -54 -20q-110 0 -204 251q-102 -56 -137 -91q-65 -110 -117 -164q-18 -19 -38 -19q-23 0 -23 9q4 4 14 13q101 87 172 245q55 123 55 177q0 18 -1 16q3 6 22 14
q-10 40 -10 48q0 9 13 17.5t19 8.5q5 0 5 -8q0 -66 47 -226q49 26 106 43q47 14 67 14q13 0 13 -10t-24 -15q-66 -13 -154 -55zM281 252q-14 46 -35 136q-25 -113 -70 -202q39 26 105 66zM187 596q0 11 12 11q10 0 53 -34q38 -30 38 -38q0 -11 -11 -11q-7 0 -57 39
q-11 8 -30 24q-5 3 -5 9z" />
    <glyph glyph-name="Aacute" unicode="&#xc1;" horiz-adv-x="556" 
d="M318 244q42 -119 94 -184q46 -59 86 -59q26 0 41 16q11 12 16 12q8 0 8 -7q0 -11 -16 -26q-21 -20 -54 -20q-110 0 -204 251q-102 -56 -137 -91q-65 -110 -117 -164q-18 -19 -38 -19q-23 0 -23 9q4 4 14 13q101 87 172 245q55 123 55 177q0 18 -1 16q3 6 22 14
q-10 40 -10 48q0 9 13 17.5t19 8.5q5 0 5 -8q0 -66 47 -226q49 26 106 43q47 14 67 14q13 0 13 -10t-24 -15q-66 -13 -154 -55zM281 252q-14 46 -35 136q-25 -113 -70 -202q39 26 105 66zM312 595q0 -5 -19 -20q-68 -52 -73 -52q-11 0 -11 11q0 9 38 39q42 33 53 33
q12 0 12 -11z" />
    <glyph glyph-name="Acircumflex" unicode="&#xc2;" horiz-adv-x="556" 
d="M318 244q42 -119 94 -184q46 -59 86 -59q26 0 41 16q11 12 16 12q8 0 8 -7q0 -11 -16 -26q-21 -20 -54 -20q-110 0 -204 251q-102 -56 -137 -91q-65 -110 -117 -164q-18 -19 -38 -19q-23 0 -23 9q4 4 14 13q101 87 172 245q55 123 55 177q0 18 -1 16q3 6 22 14
q-10 40 -10 48q0 9 13 17.5t19 8.5q5 0 5 -8q0 -66 47 -226q49 26 106 43q47 14 67 14q13 0 13 -10t-24 -15q-66 -13 -154 -55zM281 252q-14 46 -35 136q-25 -113 -70 -202q39 26 105 66zM256 565q-28 -23 -41 -35q-16 -15 -26 -15q-13 0 -13 9q0 11 68 64q-8 16 -8 17
q0 5 9 10t12 5t10 -16q20 -47 46 -64q14 -9 14 -14q0 -9 -11 -9q-16 0 -34 16t-26 32z" />
    <glyph glyph-name="Atilde" unicode="&#xc3;" horiz-adv-x="556" 
d="M318 244q42 -119 94 -184q46 -59 86 -59q26 0 41 16q11 12 16 12q8 0 8 -7q0 -11 -16 -26q-21 -20 -54 -20q-110 0 -204 251q-102 -56 -137 -91q-65 -110 -117 -164q-18 -19 -38 -19q-23 0 -23 9q4 4 14 13q101 87 172 245q55 123 55 177q0 18 -1 16q3 6 22 14
q-10 40 -10 48q0 9 13 17.5t19 8.5q5 0 5 -8q0 -66 47 -226q49 26 106 43q47 14 67 14q13 0 13 -10t-24 -15q-66 -13 -154 -55zM281 252q-14 46 -35 136q-25 -113 -70 -202q39 26 105 66zM342 572q-4 -10 -17 -21q-18 -16 -38 -16q-16 0 -53 24q-16 8 -22 8q-9 0 -28 -17
q-7 -6 -12 -6q-9 0 -9 11q0 9 18.5 25t33.5 16q10 0 35 -15q33 -20 39 -20q9 0 24 13t20 13q13 0 9 -15z" />
    <glyph glyph-name="Adieresis" unicode="&#xc4;" horiz-adv-x="556" 
d="M318 244q42 -119 94 -184q46 -59 86 -59q26 0 41 16q11 12 16 12q8 0 8 -7q0 -11 -16 -26q-21 -20 -54 -20q-110 0 -204 251q-102 -56 -137 -91q-65 -110 -117 -164q-18 -19 -38 -19q-23 0 -23 9q4 4 14 13q101 87 172 245q55 123 55 177q0 18 -1 16q3 6 22 14
q-10 40 -10 48q0 9 13 17.5t19 8.5q5 0 5 -8q0 -66 47 -226q49 26 106 43q47 14 67 14q13 0 13 -10t-24 -15q-66 -13 -154 -55zM281 252q-14 46 -35 136q-25 -113 -70 -202q39 26 105 66zM244 610q11 0 11 -12q0 -5 -13 -48q-6 -19 -16 -19q-12 0 -12 12q0 8 10 43
q7 24 20 24zM299 604q11 -1 11 -12q0 -5 -7 -31.5t-8 -28.5q-3 -14 -15 -14t-12 11q0 -4 14 59q6 17 17 16z" />
    <glyph glyph-name="Aring" unicode="&#xc5;" horiz-adv-x="556" 
d="M318 244q42 -119 94 -184q46 -59 86 -59q26 0 41 16q11 12 16 12q8 0 8 -7q0 -11 -16 -26q-21 -20 -54 -20q-110 0 -204 251q-102 -56 -137 -91q-65 -110 -117 -164q-18 -19 -38 -19q-23 0 -23 9q4 4 14 13q101 87 172 245q55 123 55 177q0 18 -1 16q3 6 22 14
q-10 40 -10 48q0 9 13 17.5t19 8.5q5 0 5 -8q0 -66 47 -226q49 26 106 43q47 14 67 14q13 0 13 -10t-24 -15q-66 -13 -154 -55zM281 252q-14 46 -35 136q-25 -113 -70 -202q39 26 105 66zM267 626q1 1 2.5 3t4 3.5t7.5 1.5q13 0 24 -11.5t11 -30.5q0 -28 -18 -51
q-21 -25 -53 -25q-47 0 -47 47q0 28 18.5 48t36.5 20q4 0 14 -5zM265 604q-7 2 -9 2q-9 0 -20 -12t-11 -29q0 -24 23 -24q21 0 33 18q9 14 9 30q0 20 -14 20q-12 -5 -11 -5z" />
    <glyph glyph-name="AE" unicode="&#xc6;" horiz-adv-x="611" 
d="M134 141q-27 -32 -99 -120q-22 -27 -39 -27q-19 0 -19 13q0 -1 27 30q142 157 174 198q73 91 113 150q7 61 11 64q9 7 30 7q14 0 14 -8q0 -7 -5 -19t-7 -26q84 46 167 46q58 0 58 -24q0 -10 -5.5 -21t-12.5 -11q-4 0 -14 14.5t-31 14.5q-42 0 -94 -19t-72 -39
q-7 -34 -7 -136q109 28 208 28q28 0 28 -14q0 -22 -16 -22q-2 0 -12 2.5t-12 2.5q-16 4 -36 4q-67 0 -160 -26q0 -82 10 -142q6 -34 31 -34q47 0 179 72q33 18 38 18q10 0 10 -11q0 -7 -17 -17q-166 -98 -230 -98q-21 0 -31.5 13t-16.5 50q-9 61 -8 138q-111 -33 -154 -51z
M288 219q0 69 3 108q-38 -44 -123 -146q24 8 120 38z" />
    <glyph glyph-name="Ccedilla" unicode="&#xc7;" horiz-adv-x="370" 
d="M133 -10q-57 6 -81 59q-15 33 -15 72q0 119 95 242q91 118 169 118q35 0 35 -31q0 -41 -42 -87t-55 -46q-12 0 -12 12q0 5 17 20q64 55 64 88q0 16 -16 16q-58 0 -138 -108q-84 -113 -84 -213q0 -47 22 -76q25 -34 73 -34q65 0 130 65q12 13 23 27q18 20 24 20q9 0 9 -11
t-25.5 -40t-59.5 -53q-52 -37 -115 -40q-6 -13 -19 -39q21 13 34 13q39 0 39 -45q0 -30 -20.5 -47.5t-46.5 -17.5q-16 0 -30 7.5t-14 16.5q0 8 8 9q-4 0 14 -8q11 -5 21 -5q19 0 30.5 13t11.5 30q0 24 -21 24q-11 0 -25.5 -9.5t-17.5 -9.5q-7 0 -7 8q0 2 25 60z" />
    <glyph glyph-name="Egrave" unicode="&#xc8;" horiz-adv-x="481" 
d="M77 145q45 27 64 37q33 17 74 34q65 26 113 26q37 0 37 -14q0 -12 -19 -12q-60 0 -106 -17q-39 -14 -70 -30q-61 -30 -95 -62q5 -85 94 -85q59 0 147 45q65 34 110 71q24 20 30 20q9 0 9 -7q0 -15 -49 -52q-54 -41 -117 -69q-79 -35 -142 -35q-50 0 -77 17q-43 27 -43 81
q0 55 33 125q38 83 108 151q96 94 174 94q21 0 37.5 -7t16.5 -17q0 -8 -12 -16t-18 -8q-5 0 -13.5 8.5t-23.5 8.5q-57 0 -138 -80q-92 -90 -124 -207zM266 596q0 11 12 11q10 0 53 -34q38 -30 38 -38q0 -11 -11 -11q-7 0 -57 39q-11 8 -30 24q-5 3 -5 9z" />
    <glyph glyph-name="Eacute" unicode="&#xc9;" horiz-adv-x="481" 
d="M77 145q45 27 64 37q33 17 74 34q65 26 113 26q37 0 37 -14q0 -12 -19 -12q-60 0 -106 -17q-39 -14 -70 -30q-61 -30 -95 -62q5 -85 94 -85q59 0 147 45q65 34 110 71q24 20 30 20q9 0 9 -7q0 -15 -49 -52q-54 -41 -117 -69q-79 -35 -142 -35q-50 0 -77 17q-43 27 -43 81
q0 55 33 125q38 83 108 151q96 94 174 94q21 0 37.5 -7t16.5 -17q0 -8 -12 -16t-18 -8q-5 0 -13.5 8.5t-23.5 8.5q-57 0 -138 -80q-92 -90 -124 -207zM397 595q0 -5 -19 -20q-68 -52 -73 -52q-11 0 -11 11q0 9 38 39q42 33 53 33q12 0 12 -11z" />
    <glyph glyph-name="Ecircumflex" unicode="&#xca;" horiz-adv-x="481" 
d="M77 145q45 27 64 37q33 17 74 34q65 26 113 26q37 0 37 -14q0 -12 -19 -12q-60 0 -106 -17q-39 -14 -70 -30q-61 -30 -95 -62q5 -85 94 -85q59 0 147 45q65 34 110 71q24 20 30 20q9 0 9 -7q0 -15 -49 -52q-54 -41 -117 -69q-79 -35 -142 -35q-50 0 -77 17q-43 27 -43 81
q0 55 33 125q38 83 108 151q96 94 174 94q21 0 37.5 -7t16.5 -17q0 -8 -12 -16t-18 -8q-5 0 -13.5 8.5t-23.5 8.5q-57 0 -138 -80q-92 -90 -124 -207zM345 565q-28 -23 -41 -35q-16 -15 -26 -15q-13 0 -13 9q0 11 68 64q-8 16 -8 17q0 5 9 10t12 5t10 -16q20 -47 46 -64
q14 -9 14 -14q0 -9 -11 -9q-16 0 -34 16t-26 32z" />
    <glyph glyph-name="Edieresis" unicode="&#xcb;" horiz-adv-x="481" 
d="M77 145q45 27 64 37q33 17 74 34q65 26 113 26q37 0 37 -14q0 -12 -19 -12q-60 0 -106 -17q-39 -14 -70 -30q-61 -30 -95 -62q5 -85 94 -85q59 0 147 45q65 34 110 71q24 20 30 20q9 0 9 -7q0 -15 -49 -52q-54 -41 -117 -69q-79 -35 -142 -35q-50 0 -77 17q-43 27 -43 81
q0 55 33 125q38 83 108 151q96 94 174 94q21 0 37.5 -7t16.5 -17q0 -8 -12 -16t-18 -8q-5 0 -13.5 8.5t-23.5 8.5q-57 0 -138 -80q-92 -90 -124 -207zM303 610q11 0 11 -12q0 -5 -13 -48q-6 -19 -16 -19q-12 0 -12 12q0 8 10 43q7 24 20 24zM358 604q11 -1 11 -12
q0 -5 -7 -31.5t-8 -28.5q-3 -14 -15 -14t-12 11q0 -4 14 59q6 17 17 16z" />
    <glyph glyph-name="Igrave" unicode="&#xcc;" horiz-adv-x="185" 
d="M115 259q1 -92 3 -130q5 -71 17 -92q1 -1 7.5 -8.5t6.5 -9.5q0 -4 -10.5 -13.5t-17.5 -9.5q-20 0 -30 55.5t-10 207.5q0 53 3 126q3 64 4.5 66.5t17 11t22.5 8.5q10 0 10 -10q0 6 -8 -35q-16 -80 -15 -167zM63 596q0 11 12 11q10 0 53 -34q38 -30 38 -38q0 -11 -11 -11
q-7 0 -57 39q-11 8 -30 24q-5 3 -5 9z" />
    <glyph glyph-name="Iacute" unicode="&#xcd;" horiz-adv-x="185" 
d="M115 259q1 -92 3 -130q5 -71 17 -92q1 -1 7.5 -8.5t6.5 -9.5q0 -4 -10.5 -13.5t-17.5 -9.5q-20 0 -30 55.5t-10 207.5q0 53 3 126q3 64 4.5 66.5t17 11t22.5 8.5q10 0 10 -10q0 6 -8 -35q-16 -80 -15 -167zM167 595q0 -5 -19 -20q-68 -52 -73 -52q-11 0 -11 11q0 9 38 39
q42 33 53 33q12 0 12 -11z" />
    <glyph glyph-name="Icircumflex" unicode="&#xce;" horiz-adv-x="185" 
d="M115 259q1 -92 3 -130q5 -71 17 -92q1 -1 7.5 -8.5t6.5 -9.5q0 -4 -10.5 -13.5t-17.5 -9.5q-20 0 -30 55.5t-10 207.5q0 53 3 126q3 64 4.5 66.5t17 11t22.5 8.5q10 0 10 -10q0 6 -8 -35q-16 -80 -15 -167zM119 565q-28 -23 -41 -35q-16 -15 -26 -15q-13 0 -13 9
q0 11 68 64q-8 16 -8 17q0 5 9 10t12 5t10 -16q20 -47 46 -64q14 -9 14 -14q0 -9 -11 -9q-16 0 -34 16t-26 32z" />
    <glyph glyph-name="Idieresis" unicode="&#xcf;" horiz-adv-x="185" 
d="M115 259q1 -92 3 -130q5 -71 17 -92q1 -1 7.5 -8.5t6.5 -9.5q0 -4 -10.5 -13.5t-17.5 -9.5q-20 0 -30 55.5t-10 207.5q0 53 3 126q3 64 4.5 66.5t17 11t22.5 8.5q10 0 10 -10q0 6 -8 -35q-16 -80 -15 -167zM114 610q11 0 11 -12q0 -5 -13 -48q-6 -19 -16 -19
q-12 0 -12 12q0 8 10 43q7 24 20 24zM169 604q11 -1 11 -12q0 -5 -7 -31.5t-8 -28.5q-3 -14 -15 -14t-12 11q0 -4 14 59q6 17 17 16z" />
    <glyph glyph-name="Eth" unicode="&#xd0;" horiz-adv-x="667" 
d="M270 260q-25 2 -58 4q-12 0 -12 9q0 13 16 13t64 -4q8 14 43 82q12 24 30 61q-62 18 -118 18q-134 0 -175 -67q-6 -10 -10 -10q-12 0 -12 15q0 27 52.5 55.5t143.5 28.5q58 0 128 -19q39 80 58 105q15 19 31 19q23 0 23 -27q0 -12 -9 -12q-2 0 -8 4.5t-7 4.5
q-5 0 -13 -14q-30 -52 -47 -90q89 -37 144 -84q105 -91 105 -190q0 -72 -64.5 -118t-159.5 -46q-118 0 -217 64q-18 -35 -43 -81q-15 -27 -42 -66q-10 -11 -19 -11q-19 0 -19 18q0 -1 9 49q12 67 12 112q0 67 -7 119q-6 45 -6 43q0 12 18 12q9 0 12 -5t10 -28
q22 -74 68 -118q34 66 79 154zM301 258l-90 -171q104 -64 211 -64q81 0 131 41q47 38 47 94q0 77 -54.5 145t-166.5 111l-68 -136q71 -8 123 -28q43 -17 43 -27q0 -4 -7.5 -10t-12.5 -6q3 0 -37 19q-46 22 -119 32zM176 78q-35 31 -58 77q3 -30 3 -68q0 -76 -17 -140
q23 37 72 131z" />
    <glyph glyph-name="Ntilde" unicode="&#xd1;" horiz-adv-x="722" 
d="M422 357q-36 -162 -74 -249q-86 -198 -226 -198q-63 0 -93 52q-21 38 -21 92q0 45 7 64q3 13 11 13q7 0 7 -8q0 -7 -2 -25.5t-2 -26.5q0 -66 28 -103q23 -31 70 -31q142 0 221 262q42 138 48 204q-8 17 -37 57q-7 9 -7 11q0 5 14 12.5t19 7.5q3 0 18 -26q39 -69 121 -236
q55 -111 87 -164q-3 21 -3 49q0 100 21 230q19 122 40 172q6 14 38 14q4 0 4 -3q0 3 -14 -40q-56 -173 -56 -391q0 -63 6.5 -78l6.5 -15q0 -4 -12 -13t-18 -9q-11 0 -96 166zM634 572q-4 -10 -17 -21q-18 -16 -38 -16q-16 0 -53 24q-16 8 -22 8q-9 0 -28 -17q-7 -6 -12 -6
q-9 0 -9 11q0 9 18.5 25t33.5 16q10 0 35 -15q33 -20 39 -20q9 0 24 13t20 13q13 0 9 -15z" />
    <glyph glyph-name="Ograve" unicode="&#xd2;" horiz-adv-x="593" 
d="M576 240q0 -91 -104 -176q-108 -89 -236 -89q-106 0 -162 71q-44 56 -44 131q0 121 103 215q95 88 196 88q74 0 74 -40q0 -11 -11.5 -19t-20.5 -8q-6 0 -17 16q-19 27 -50 27q-67 0 -145 -75q-89 -85 -89 -190q0 -78 50 -132q53 -58 137 -58q92 0 180 68q96 74 96 169
q0 55 -40 90q-47 42 -137 42q-74 0 -133 -21q-2 0 -15 -5.5t-16 -5.5q-4 0 -4 4q0 11 49 28q57 19 121 19q86 0 147 -35q71 -42 71 -114zM264 596q0 11 12 11q10 0 53 -34q38 -30 38 -38q0 -11 -11 -11q-7 0 -57 39q-11 8 -30 24q-5 3 -5 9z" />
    <glyph glyph-name="Oacute" unicode="&#xd3;" horiz-adv-x="593" 
d="M576 240q0 -91 -104 -176q-108 -89 -236 -89q-106 0 -162 71q-44 56 -44 131q0 121 103 215q95 88 196 88q74 0 74 -40q0 -11 -11.5 -19t-20.5 -8q-6 0 -17 16q-19 27 -50 27q-67 0 -145 -75q-89 -85 -89 -190q0 -78 50 -132q53 -58 137 -58q92 0 180 68q96 74 96 169
q0 55 -40 90q-47 42 -137 42q-74 0 -133 -21q-2 0 -15 -5.5t-16 -5.5q-4 0 -4 4q0 11 49 28q57 19 121 19q86 0 147 -35q71 -42 71 -114zM404 595q0 -5 -19 -20q-68 -52 -73 -52q-11 0 -11 11q0 9 38 39q42 33 53 33q12 0 12 -11z" />
    <glyph glyph-name="Ocircumflex" unicode="&#xd4;" horiz-adv-x="593" 
d="M576 240q0 -91 -104 -176q-108 -89 -236 -89q-106 0 -162 71q-44 56 -44 131q0 121 103 215q95 88 196 88q74 0 74 -40q0 -11 -11.5 -19t-20.5 -8q-6 0 -17 16q-19 27 -50 27q-67 0 -145 -75q-89 -85 -89 -190q0 -78 50 -132q53 -58 137 -58q92 0 180 68q96 74 96 169
q0 55 -40 90q-47 42 -137 42q-74 0 -133 -21q-2 0 -15 -5.5t-16 -5.5q-4 0 -4 4q0 11 49 28q57 19 121 19q86 0 147 -35q71 -42 71 -114zM355 565q-28 -23 -41 -35q-16 -15 -26 -15q-13 0 -13 9q0 11 68 64q-8 16 -8 17q0 5 9 10t12 5t10 -16q20 -47 46 -64q14 -9 14 -14
q0 -9 -11 -9q-16 0 -34 16t-26 32z" />
    <glyph glyph-name="Otilde" unicode="&#xd5;" horiz-adv-x="593" 
d="M576 240q0 -91 -104 -176q-108 -89 -236 -89q-106 0 -162 71q-44 56 -44 131q0 121 103 215q95 88 196 88q74 0 74 -40q0 -11 -11.5 -19t-20.5 -8q-6 0 -17 16q-19 27 -50 27q-67 0 -145 -75q-89 -85 -89 -190q0 -78 50 -132q53 -58 137 -58q92 0 180 68q96 74 96 169
q0 55 -40 90q-47 42 -137 42q-74 0 -133 -21q-2 0 -15 -5.5t-16 -5.5q-4 0 -4 4q0 11 49 28q57 19 121 19q86 0 147 -35q71 -42 71 -114zM430 572q-4 -10 -17 -21q-18 -16 -38 -16q-16 0 -53 24q-16 8 -22 8q-9 0 -28 -17q-7 -6 -12 -6q-9 0 -9 11q0 9 18.5 25t33.5 16
q10 0 35 -15q33 -20 39 -20q9 0 24 13t20 13q13 0 9 -15z" />
    <glyph glyph-name="Odieresis" unicode="&#xd6;" horiz-adv-x="593" 
d="M576 240q0 -91 -104 -176q-108 -89 -236 -89q-106 0 -162 71q-44 56 -44 131q0 121 103 215q95 88 196 88q74 0 74 -40q0 -11 -11.5 -19t-20.5 -8q-6 0 -17 16q-19 27 -50 27q-67 0 -145 -75q-89 -85 -89 -190q0 -78 50 -132q53 -58 137 -58q92 0 180 68q96 74 96 169
q0 55 -40 90q-47 42 -137 42q-74 0 -133 -21q-2 0 -15 -5.5t-16 -5.5q-4 0 -4 4q0 11 49 28q57 19 121 19q86 0 147 -35q71 -42 71 -114zM329 610q11 0 11 -12q0 -5 -13 -48q-6 -19 -16 -19q-12 0 -12 12q0 8 10 43q7 24 20 24zM384 604q11 -1 11 -12q0 -5 -7 -31.5
t-8 -28.5q-3 -14 -15 -14t-12 11q0 -4 14 59q6 17 17 16z" />
    <glyph glyph-name="multiply" unicode="&#xd7;" horiz-adv-x="426" 
d="M46 35l142 143l-142 142l25 25l142 -143l142 143l25 -25l-143 -142l143 -143l-25 -24l-142 142l-142 -142z" />
    <glyph glyph-name="Oslash" unicode="&#xd8;" horiz-adv-x="593" 
d="M533 333q42 -39 42 -88q0 -98 -107 -184t-233 -86q-79 0 -135 43q-7 -5 -40 -33q-10 -8 -15 -8q-13 0 -13 14q0 7 7 12q31 24 42 33q-52 58 -52 142q0 119 103 214q95 88 196 88q74 0 74 -40q0 -11 -11.5 -19t-20.5 -8q-6 0 -17 16q-18 27 -50 27q-67 0 -145 -75
q-89 -85 -89 -190q0 -71 47 -128q152 119 370 270q-44 37 -131 37q-74 0 -133 -21q-2 0 -15 -5.5t-16 -5.5q-4 0 -4 4q0 11 49 28q57 19 121 19q82 0 153 -39q30 19 44.5 30.5t22.5 11.5q12 0 12 -11q0 -9 -16.5 -20.5t-39.5 -27.5zM506 315q-252 -174 -372 -270
q48 -44 122 -44q94 0 182 70q94 74 94 164q0 45 -26 80z" />
    <glyph glyph-name="Ugrave" unicode="&#xd9;" horiz-adv-x="630" 
d="M509 267q-73 -181 -148 -283q-40 -55 -77 -55q-20 0 -26.5 13t-6.5 45q0 53 10 171q11 109 25 255q-90 -2 -156 -27q-82 -30 -82 -83q0 -20 11.5 -34.5t22.5 -14.5t11 -6q0 -23 -17 -23t-35 21t-18 51q0 72 99 111q66 26 165 35q0 28 2.5 31.5t15.5 10t21 6.5t8 -8
q0 6 -7 -45q-44 -319 -44 -439q0 -42 12 -42q31 0 122 171q88 167 88 210q0 13 -15 115q0 7 16.5 14.5t23.5 7.5q6 0 7 -57q3 -296 46 -374q6 -12 28 -20q11 -4 11 -7q0 -4 -9.5 -17t-17.5 -13q-29 0 -49 49q-22 56 -37 231zM361 596q0 11 12 11q10 0 53 -34q38 -30 38 -38
q0 -11 -11 -11q-7 0 -57 39q-11 8 -30 24q-5 3 -5 9z" />
    <glyph glyph-name="Uacute" unicode="&#xda;" horiz-adv-x="630" 
d="M509 267q-73 -181 -148 -283q-40 -55 -77 -55q-20 0 -26.5 13t-6.5 45q0 53 10 171q11 109 25 255q-90 -2 -156 -27q-82 -30 -82 -83q0 -20 11.5 -34.5t22.5 -14.5t11 -6q0 -23 -17 -23t-35 21t-18 51q0 72 99 111q66 26 165 35q0 28 2.5 31.5t15.5 10t21 6.5t8 -8
q0 6 -7 -45q-44 -319 -44 -439q0 -42 12 -42q31 0 122 171q88 167 88 210q0 13 -15 115q0 7 16.5 14.5t23.5 7.5q6 0 7 -57q3 -296 46 -374q6 -12 28 -20q11 -4 11 -7q0 -4 -9.5 -17t-17.5 -13q-29 0 -49 49q-22 56 -37 231zM503 595q0 -5 -19 -20q-68 -52 -73 -52
q-11 0 -11 11q0 9 38 39q42 33 53 33q12 0 12 -11z" />
    <glyph glyph-name="Ucircumflex" unicode="&#xdb;" horiz-adv-x="630" 
d="M509 267q-73 -181 -148 -283q-40 -55 -77 -55q-20 0 -26.5 13t-6.5 45q0 53 10 171q11 109 25 255q-90 -2 -156 -27q-82 -30 -82 -83q0 -20 11.5 -34.5t22.5 -14.5t11 -6q0 -23 -17 -23t-35 21t-18 51q0 72 99 111q66 26 165 35q0 28 2.5 31.5t15.5 10t21 6.5t8 -8
q0 6 -7 -45q-44 -319 -44 -439q0 -42 12 -42q31 0 122 171q88 167 88 210q0 13 -15 115q0 7 16.5 14.5t23.5 7.5q6 0 7 -57q3 -296 46 -374q6 -12 28 -20q11 -4 11 -7q0 -4 -9.5 -17t-17.5 -13q-29 0 -49 49q-22 56 -37 231zM431 565q-28 -23 -41 -35q-16 -15 -26 -15
q-13 0 -13 9q0 11 68 64q-8 16 -8 17q0 5 9 10t12 5t10 -16q20 -47 46 -64q14 -9 14 -14q0 -9 -11 -9q-16 0 -34 16t-26 32z" />
    <glyph glyph-name="Udieresis" unicode="&#xdc;" horiz-adv-x="630" 
d="M509 267q-73 -181 -148 -283q-40 -55 -77 -55q-20 0 -26.5 13t-6.5 45q0 53 10 171q11 109 25 255q-90 -2 -156 -27q-82 -30 -82 -83q0 -20 11.5 -34.5t22.5 -14.5t11 -6q0 -23 -17 -23t-35 21t-18 51q0 72 99 111q66 26 165 35q0 28 2.5 31.5t15.5 10t21 6.5t8 -8
q0 6 -7 -45q-44 -319 -44 -439q0 -42 12 -42q31 0 122 171q88 167 88 210q0 13 -15 115q0 7 16.5 14.5t23.5 7.5q6 0 7 -57q3 -296 46 -374q6 -12 28 -20q11 -4 11 -7q0 -4 -9.5 -17t-17.5 -13q-29 0 -49 49q-22 56 -37 231zM416 610q11 0 11 -12q0 -5 -13 -48
q-6 -19 -16 -19q-12 0 -12 12q0 8 10 43q7 24 20 24zM471 604q11 -1 11 -12q0 -5 -7 -31.5t-8 -28.5q-3 -14 -15 -14t-12 11q0 -4 14 59q6 17 17 16z" />
    <glyph glyph-name="Yacute" unicode="&#xdd;" horiz-adv-x="537" 
d="M257 412q-60 -1 -128 -25q-75 -27 -75 -56q0 -12 15 -17t15 -14q0 -16 -20 -16q-16 0 -28 11.5t-12 28.5q0 76 229 118q-4 8 -4 14t17 12q13 4 19 4q8 0 9 -20q2 -89 5 -207q4 -80 12 -194q0 -11 6 -11q4 0 22 29q60 96 98 224q-3 11 -18 43l-5.5 11t-4.5 10q0 5 16 13.5
t20 8.5q8 0 19 -41q29 -109 29 -232q0 -118 -36 -214q-37 -99 -120 -99q-107 0 -167 132q-30 67 -30 125q0 20 31 20q9 0 9 -9q0 -3 -1.5 -16.5t-1.5 -15.5q0 -83 50.5 -147.5t111.5 -64.5q75 0 106 119q18 68 18 152q0 90 -16 149q-38 -107 -93 -196q-25 -40 -48 -40
q-15 0 -20 11.5t-8 51.5q-8 149 -21 348zM445 595q0 -5 -19 -20q-68 -52 -73 -52q-11 0 -11 11q0 9 38 39q42 33 53 33q12 0 12 -11z" />
    <glyph glyph-name="Thorn" unicode="&#xde;" horiz-adv-x="333" 
d="M101 381q105 28 151 28q55 0 80 -24q17 -16 17 -37q0 -31 -37 -79q-32 -41 -69 -70q-69 -54 -158 -63q0 -123 29 -123q7 0 20 9q3 3 8 3q10 0 10 -9q0 -10 -13.5 -20t-29.5 -10q-38 0 -50 60q-8 41 -8 122q0 126 15 253q5 39 36 39q12 0 12 -8q-4 -21 -4 -20
q-4 -21 -9 -51zM85 162q82 11 141 59q32 26 57 59q30 39 30 64q0 38 -68 38q-63 0 -149 -28q-11 -80 -11 -192z" />
    <glyph glyph-name="germandbls" unicode="&#xdf;" horiz-adv-x="389" 
d="M32 -138v-56q-1 -5 -12 -10.5t-17 -5.5q-13 0 -13 14q0 50 22 164q27 138 64 232q40 101 106 174t118 73q30 0 30 -31q0 -59 -158 -175q15 3 35 3q63 0 111.5 -30.5t48.5 -73.5q0 -48 -58 -94q-62 -49 -140 -49q-53 0 -80 20q-20 14 -20 30q0 10 5.5 21t13.5 11
q6 0 7 -15q7 -39 79 -39q69 0 117 38q43 34 43 74q0 33 -41.5 57.5t-89.5 24.5q-61 0 -104 -33q-22 -61 -43 -152q-24 -107 -24 -172zM119 228q60 42 110 90q65 61 65 89q0 11 -11 11q-23 0 -74 -54q-56 -61 -90 -136z" />
    <glyph glyph-name="agrave" unicode="&#xe0;" 
d="M186 253q-7 35 -7 34q0 9 12 14q9 5 17 5q11 0 11 -14q0 -66 15 -150q16 -90 34 -114q0 -1 11 -9t11 -10q0 -13 -15 -13q-32 0 -49 51q-19 57 -28 126q-28 -47 -69 -100q-58 -74 -84 -74t-26 24q0 51 60 141.5t100 90.5q3 0 7 -2zM188 211q0 15 -14 15q-26 0 -76 -80
t-50 -109q0 -6 4 -6q15 0 75.5 81t60.5 99zM136 392q0 11 12 11q10 0 53 -34q38 -30 38 -38q0 -11 -11 -11q-7 0 -57 39q-11 8 -30 24q-5 3 -5 9z" />
    <glyph glyph-name="aacute" unicode="&#xe1;" 
d="M186 253q-7 35 -7 34q0 9 12 14q9 5 17 5q11 0 11 -14q0 -66 15 -150q16 -90 34 -114q0 -1 11 -9t11 -10q0 -13 -15 -13q-32 0 -49 51q-19 57 -28 126q-28 -47 -69 -100q-58 -74 -84 -74t-26 24q0 51 60 141.5t100 90.5q3 0 7 -2zM188 211q0 15 -14 15q-26 0 -76 -80
t-50 -109q0 -6 4 -6q15 0 75.5 81t60.5 99zM237 391q0 -5 -19 -20q-68 -52 -73 -52q-11 0 -11 11q0 9 38 39q42 33 53 33q12 0 12 -11z" />
    <glyph glyph-name="acircumflex" unicode="&#xe2;" 
d="M186 253q-7 35 -7 34q0 9 12 14q9 5 17 5q11 0 11 -14q0 -66 15 -150q16 -90 34 -114q0 -1 11 -9t11 -10q0 -13 -15 -13q-32 0 -49 51q-19 57 -28 126q-28 -47 -69 -100q-58 -74 -84 -74t-26 24q0 51 60 141.5t100 90.5q3 0 7 -2zM188 211q0 15 -14 15q-26 0 -76 -80
t-50 -109q0 -6 4 -6q15 0 75.5 81t60.5 99zM201 361q-28 -23 -41 -35q-16 -15 -26 -15q-13 0 -13 9q0 11 68 64q-8 16 -8 17q0 5 9 10t12 5t10 -16q20 -47 46 -64q14 -9 14 -14q0 -9 -11 -9q-16 0 -34 16t-26 32z" />
    <glyph glyph-name="atilde" unicode="&#xe3;" 
d="M186 253q-7 35 -7 34q0 9 12 14q9 5 17 5q11 0 11 -14q0 -66 15 -150q16 -90 34 -114q0 -1 11 -9t11 -10q0 -13 -15 -13q-32 0 -49 51q-19 57 -28 126q-28 -47 -69 -100q-58 -74 -84 -74t-26 24q0 51 60 141.5t100 90.5q3 0 7 -2zM188 211q0 15 -14 15q-26 0 -76 -80
t-50 -109q0 -6 4 -6q15 0 75.5 81t60.5 99zM279 368q-4 -10 -17 -21q-18 -16 -38 -16q-16 0 -53 24q-16 8 -22 8q-9 0 -28 -17q-7 -6 -12 -6q-9 0 -9 11q0 9 18.5 25t33.5 16q10 0 35 -15q33 -20 39 -20q9 0 24 13t20 13q13 0 9 -15z" />
    <glyph glyph-name="adieresis" unicode="&#xe4;" 
d="M186 253q-7 35 -7 34q0 9 12 14q9 5 17 5q11 0 11 -14q0 -66 15 -150q16 -90 34 -114q0 -1 11 -9t11 -10q0 -13 -15 -13q-32 0 -49 51q-19 57 -28 126q-28 -47 -69 -100q-58 -74 -84 -74t-26 24q0 51 60 141.5t100 90.5q3 0 7 -2zM188 211q0 15 -14 15q-26 0 -76 -80
t-50 -109q0 -6 4 -6q15 0 75.5 81t60.5 99zM180 406q11 0 11 -12q0 -5 -13 -48q-6 -19 -16 -19q-12 0 -12 12q0 8 10 43q7 24 20 24zM235 400q11 -1 11 -12q0 -5 -7 -31.5t-8 -28.5q-3 -14 -15 -14t-12 11q0 -4 14 59q6 17 17 16z" />
    <glyph glyph-name="aring" unicode="&#xe5;" 
d="M186 253q-7 35 -7 34q0 9 12 14q9 5 17 5q11 0 11 -14q0 -66 15 -150q16 -90 34 -114q0 -1 11 -9t11 -10q0 -13 -15 -13q-32 0 -49 51q-19 57 -28 126q-28 -47 -69 -100q-58 -74 -84 -74t-26 24q0 51 60 141.5t100 90.5q3 0 7 -2zM188 211q0 15 -14 15q-26 0 -76 -80
t-50 -109q0 -6 4 -6q15 0 75.5 81t60.5 99zM208 422q1 1 2.5 3t4 3.5t7.5 1.5q13 0 24 -11.5t11 -30.5q0 -28 -18 -51q-21 -25 -53 -25q-47 0 -47 47q0 28 18.5 48t36.5 20q4 0 14 -5zM206 400q-7 2 -9 2q-9 0 -20 -12t-11 -29q0 -24 23 -24q21 0 33 18q9 14 9 30
q0 20 -14 20q-12 -5 -11 -5z" />
    <glyph glyph-name="ae" unicode="&#xe6;" horiz-adv-x="426" 
d="M223 226l-2 34q-1 19 29 19q13 0 13 -6q0 -3 -5 -30q-5 -30 -7 -77q53 110 111 110q38 0 38 -33q0 -24 -29 -60q-41 -51 -119 -82q3 -76 49 -76q30 0 81 32q18 11 22 11q9 0 9 -9q0 -13 -43 -36q-46 -25 -79 -25q-69 0 -69 109q0 14 1 45q-63 -75 -106 -107
q-49 -44 -73 -44t-24 24q0 39 71.5 123.5t116.5 84.5q8 0 15 -7zM357 251q-20 0 -55 -49q-26 -36 -44 -71q44 18 81 56q32 34 32 53q0 11 -14 11zM202 205q-28 0 -90 -72t-62 -97q0 -5 5 -5q15 0 88.5 71t73.5 90q0 13 -15 13z" />
    <glyph glyph-name="ccedilla" unicode="&#xe7;" horiz-adv-x="204" 
d="M149 70l33 42q6 6 10 6q8 0 8 -8q0 -17 -39 -64q-46 -53 -86 -52q-6 -15 -20 -43q21 13 34 13q38 0 38 -45q0 -30 -20.5 -47.5t-45.5 -17.5q-16 0 -30.5 7.5t-14.5 16.5q0 8 9 9q-2 0 14 -8q10 -5 21 -5q19 0 30.5 13t11.5 30q0 24 -21 24q-11 0 -26 -9.5t-17 -9.5
q-7 0 -7 8q0 5 15 39q5 12 12 27q-38 12 -38 73q0 70 44 137t86 67q24 0 24 -17q0 -10 -10.5 -21.5t-18.5 -11.5q-7 0 -7 5q0 2 3.5 9t3.5 8q0 3 -4 3q-18 0 -51 -53q-36 -61 -36 -120q0 -54 27 -54q30 0 68 49z" />
    <glyph glyph-name="egrave" unicode="&#xe8;" horiz-adv-x="222" 
d="M67 96q-4 -75 43 -75q31 0 87 45q19 15 24 15q7 0 7 -8q0 -9 -20 -27q-58 -52 -103 -52q-71 0 -71 95q0 64 25 123q29 70 76 70q33 0 33 -35t-27 -77q-29 -45 -74 -74zM67 129q27 18 49.5 54t22.5 55q0 16 -12 16q-18 0 -37 -45q-17 -39 -23 -80zM80 392q0 11 12 11
q10 0 53 -34q38 -30 38 -38q0 -11 -11 -11q-7 0 -57 39q-11 8 -30 24q-5 3 -5 9z" />
    <glyph glyph-name="eacute" unicode="&#xe9;" horiz-adv-x="222" 
d="M67 96q-4 -75 43 -75q31 0 87 45q19 15 24 15q7 0 7 -8q0 -9 -20 -27q-58 -52 -103 -52q-71 0 -71 95q0 64 25 123q29 70 76 70q33 0 33 -35t-27 -77q-29 -45 -74 -74zM67 129q27 18 49.5 54t22.5 55q0 16 -12 16q-18 0 -37 -45q-17 -39 -23 -80zM205 391q0 -5 -19 -20
q-68 -52 -73 -52q-11 0 -11 11q0 9 38 39q42 33 53 33q12 0 12 -11z" />
    <glyph glyph-name="ecircumflex" unicode="&#xea;" horiz-adv-x="222" 
d="M67 96q-4 -75 43 -75q31 0 87 45q19 15 24 15q7 0 7 -8q0 -9 -20 -27q-58 -52 -103 -52q-71 0 -71 95q0 64 25 123q29 70 76 70q33 0 33 -35t-27 -77q-29 -45 -74 -74zM67 129q27 18 49.5 54t22.5 55q0 16 -12 16q-18 0 -37 -45q-17 -39 -23 -80zM135 361
q-28 -23 -41 -35q-16 -15 -26 -15q-13 0 -13 9q0 11 68 64q-8 16 -8 17q0 5 9 10t12 5t10 -16q20 -47 46 -64q14 -9 14 -14q0 -9 -11 -9q-16 0 -34 16t-26 32z" />
    <glyph glyph-name="edieresis" unicode="&#xeb;" horiz-adv-x="222" 
d="M67 96q-4 -75 43 -75q31 0 87 45q19 15 24 15q7 0 7 -8q0 -9 -20 -27q-58 -52 -103 -52q-71 0 -71 95q0 64 25 123q29 70 76 70q33 0 33 -35t-27 -77q-29 -45 -74 -74zM67 129q27 18 49.5 54t22.5 55q0 16 -12 16q-18 0 -37 -45q-17 -39 -23 -80zM123 406q11 0 11 -12
q0 -5 -13 -48q-6 -19 -16 -19q-12 0 -12 12q0 8 10 43q7 24 20 24zM178 400q11 -1 11 -12q0 -5 -7 -31.5t-8 -28.5q-3 -14 -15 -14t-12 11q0 -4 14 59q6 17 17 16z" />
    <glyph glyph-name="igrave" unicode="&#xec;" horiz-adv-x="148" 
d="M69 129q0 -109 28 -114q16 -3 16 -8q0 -18 -29 -18q-27 0 -37 49q-9 44 -9 129q0 66 9 75q13 13 28 13q10 0 10 -9q0 9 -8 -28t-8 -89zM16 392q0 11 12 11q10 0 53 -34q38 -30 38 -38q0 -11 -11 -11q-7 0 -57 39q-11 8 -30 24q-5 3 -5 9z" />
    <glyph glyph-name="iacute" unicode="&#xed;" horiz-adv-x="148" 
d="M69 129q0 -109 28 -114q16 -3 16 -8q0 -18 -29 -18q-27 0 -37 49q-9 44 -9 129q0 66 9 75q13 13 28 13q10 0 10 -9q0 9 -8 -28t-8 -89zM127 391q0 -5 -19 -20q-68 -52 -73 -52q-11 0 -11 11q0 9 38 39q42 33 53 33q12 0 12 -11z" />
    <glyph glyph-name="icircumflex" unicode="&#xee;" horiz-adv-x="148" 
d="M69 129q0 -109 28 -114q16 -3 16 -8q0 -18 -29 -18q-27 0 -37 49q-9 44 -9 129q0 66 9 75q13 13 28 13q10 0 10 -9q0 9 -8 -28t-8 -89zM80 361q-28 -23 -41 -35q-16 -15 -26 -15q-13 0 -13 9q0 11 68 64q-8 16 -8 17q0 5 9 10t12 5t10 -16q20 -47 46 -64q14 -9 14 -14
q0 -9 -11 -9q-16 0 -34 16t-26 32z" />
    <glyph glyph-name="idieresis" unicode="&#xef;" horiz-adv-x="148" 
d="M69 129q0 -109 28 -114q16 -3 16 -8q0 -18 -29 -18q-27 0 -37 49q-9 44 -9 129q0 66 9 75q13 13 28 13q10 0 10 -9q0 9 -8 -28t-8 -89zM58 406q11 0 11 -12q0 -5 -13 -48q-6 -19 -16 -19q-12 0 -12 12q0 8 10 43q7 24 20 24zM113 400q11 -1 11 -12q0 -5 -7 -31.5
t-8 -28.5q-3 -14 -15 -14t-12 11q0 -4 14 59q6 17 17 16z" />
    <glyph glyph-name="eth" unicode="&#xf0;" horiz-adv-x="259" 
d="M136 369q31 -39 60 -97q45 -90 45 -162q0 -60 -34 -89q-26 -24 -64 -24q-49 0 -86 38.5t-37 91.5q0 43 26.5 74.5t70.5 31.5q41 0 75 -29q-28 84 -80 148l-55 -49q-11 0 -11 11q0 14 51 54q-23 23 -47 28q-16 3 -16 13q0 22 28 22q18 0 59 -44q55 45 79 45q12 0 12 -12
q0 -14 -22 -19q-9 -2 -54 -32zM210 104q0 52 -31 79q-25 21 -59 21t-51.5 -21.5t-17.5 -52.5q0 -41 29 -73t69 -32q61 0 61 79z" />
    <glyph glyph-name="ntilde" unicode="&#xf1;" horiz-adv-x="278" 
d="M60 47q30 61 81 153q26 46 33 55q11 14 26 14q10 0 10 -8q0 9 -8 -31q-6 -30 -6 -63q0 -41 7 -78q13 -69 44 -69q11 0 23 9q9 7 13 7q8 0 8 -9q0 -10 -16 -18.5t-33 -8.5q-77 0 -77 171q0 4 2 28q-42 -73 -93 -183q-12 -27 -19 -27q-3 0 -14 5.5t-11 11.5q0 13 9 115.5
t12 108t31 16.5q6 0 6 -10q0 -2 -8 -48q-16 -94 -20 -141zM250 368q-4 -10 -17 -21q-18 -16 -38 -16q-16 0 -53 24q-16 8 -22 8q-9 0 -28 -17q-7 -6 -12 -6q-9 0 -9 11q0 9 18.5 25t33.5 16q10 0 35 -15q33 -20 39 -20q9 0 24 13t20 13q13 0 9 -15z" />
    <glyph glyph-name="ograve" unicode="&#xf2;" horiz-adv-x="259" 
d="M123 253q11 7 25 7q34 0 62 -30q30 -33 30 -83q0 -52 -33 -98q-37 -52 -92 -52q-44 0 -70 39q-24 35 -24 86q0 55 28 98q27 40 59 40q8 0 15 -7zM129 235q-4 -21 -18 -21q-3 0 -6 3q-9 8 -14 8q-12 0 -24 -25q-15 -28 -15 -65q0 -51 24 -81q21 -27 50 -27q30 0 56 31
t26 75q0 45 -22.5 75.5t-56.5 26.5zM71 392q0 11 12 11q10 0 53 -34q38 -30 38 -38q0 -11 -11 -11q-7 0 -57 39q-11 8 -30 24q-5 3 -5 9z" />
    <glyph glyph-name="oacute" unicode="&#xf3;" horiz-adv-x="259" 
d="M123 253q11 7 25 7q34 0 62 -30q30 -33 30 -83q0 -52 -33 -98q-37 -52 -92 -52q-44 0 -70 39q-24 35 -24 86q0 55 28 98q27 40 59 40q8 0 15 -7zM129 235q-4 -21 -18 -21q-3 0 -6 3q-9 8 -14 8q-12 0 -24 -25q-15 -28 -15 -65q0 -51 24 -81q21 -27 50 -27q30 0 56 31
t26 75q0 45 -22.5 75.5t-56.5 26.5zM204 391q0 -5 -19 -20q-68 -52 -73 -52q-11 0 -11 11q0 9 38 39q42 33 53 33q12 0 12 -11z" />
    <glyph glyph-name="ocircumflex" unicode="&#xf4;" horiz-adv-x="259" 
d="M123 253q11 7 25 7q34 0 62 -30q30 -33 30 -83q0 -52 -33 -98q-37 -52 -92 -52q-44 0 -70 39q-24 35 -24 86q0 55 28 98q27 40 59 40q8 0 15 -7zM129 235q-4 -21 -18 -21q-3 0 -6 3q-9 8 -14 8q-12 0 -24 -25q-15 -28 -15 -65q0 -51 24 -81q21 -27 50 -27q30 0 56 31
t26 75q0 45 -22.5 75.5t-56.5 26.5zM134 361q-28 -23 -41 -35q-16 -15 -26 -15q-13 0 -13 9q0 11 68 64q-8 16 -8 17q0 5 9 10t12 5t10 -16q20 -47 46 -64q14 -9 14 -14q0 -9 -11 -9q-16 0 -34 16t-26 32z" />
    <glyph glyph-name="otilde" unicode="&#xf5;" horiz-adv-x="259" 
d="M123 253q11 7 25 7q34 0 62 -30q30 -33 30 -83q0 -52 -33 -98q-37 -52 -92 -52q-44 0 -70 39q-24 35 -24 86q0 55 28 98q27 40 59 40q8 0 15 -7zM129 235q-4 -21 -18 -21q-3 0 -6 3q-9 8 -14 8q-12 0 -24 -25q-15 -28 -15 -65q0 -51 24 -81q21 -27 50 -27q30 0 56 31
t26 75q0 45 -22.5 75.5t-56.5 26.5zM238 368q-4 -10 -17 -21q-18 -16 -38 -16q-16 0 -53 24q-16 8 -22 8q-9 0 -28 -17q-7 -6 -12 -6q-9 0 -9 11q0 9 18.5 25t33.5 16q10 0 35 -15q33 -20 39 -20q9 0 24 13t20 13q13 0 9 -15z" />
    <glyph glyph-name="odieresis" unicode="&#xf6;" horiz-adv-x="259" 
d="M123 253q11 7 25 7q34 0 62 -30q30 -33 30 -83q0 -52 -33 -98q-37 -52 -92 -52q-44 0 -70 39q-24 35 -24 86q0 55 28 98q27 40 59 40q8 0 15 -7zM129 235q-4 -21 -18 -21q-3 0 -6 3q-9 8 -14 8q-12 0 -24 -25q-15 -28 -15 -65q0 -51 24 -81q21 -27 50 -27q30 0 56 31
t26 75q0 45 -22.5 75.5t-56.5 26.5zM126 406q11 0 11 -12q0 -5 -13 -48q-6 -19 -16 -19q-12 0 -12 12q0 8 10 43q7 24 20 24zM181 400q11 -1 11 -12q0 -5 -7 -31.5t-8 -28.5q-3 -14 -15 -14t-12 11q0 -4 14 59q6 17 17 16z" />
    <glyph glyph-name="divide" unicode="&#xf7;" horiz-adv-x="426" 
d="M36 162v32h354v-32h-354zM213 83q31 0 31 -31t-31 -31t-31 31t31 31zM213 336q31 0 31 -32q0 -31 -31 -31t-31 31q0 32 31 32z" />
    <glyph glyph-name="oslash" unicode="&#xf8;" horiz-adv-x="259" 
d="M35 47q-17 31 -17 75q0 55 28 96.5t60 41.5q9 0 14 -7q12 7 25 7q37 0 68 -39q33 27 36 27q13 0 13 -15q0 -5 -9 -12.5t-26 -22.5q10 -25 10 -51q0 -53 -32 -98q-37 -52 -92 -52q-36 0 -64 28q-5 -6 -21 -22q-9 -7 -12 -7q-13 0 -13 12q0 3 5.5 10.5t26.5 28.5zM61 74
q50 53 128 125q-25 41 -63 36q-4 -21 -18 -21q-3 0 -6 3q-9 8 -14 8q-12 0 -24 -24q-15 -29 -15 -67q0 -31 12 -60zM200 173q-63 -58 -125 -121q23 -25 47 -25q31 0 57 31t26 75q0 18 -5 40z" />
    <glyph glyph-name="ugrave" unicode="&#xf9;" 
d="M254 35l8 2q8 0 8 -7q0 -5 -8.5 -14.5t-17.5 -9.5q-19 0 -28 28q-7 21 -14 82q-34 -43 -46 -58q-21 -23 -48 -47q-22 -19 -35 -19q-28 0 -28 41q0 25 8 181q1 14 13 22t21 8q12 0 12 -9q0 4 -7 -28q-15 -69 -15 -165q0 -15 8 -15q9 0 51 47q60 67 60 94q0 31 -2 51.5
t-2 24.5q0 9 12.5 16.5t20.5 7.5q9 0 9 -11q0 -2 -1.5 -13.5t-1.5 -12.5q-2 -27 -2 -50q0 -47 6 -91q7 -55 19 -55zM81 392q0 11 12 11q10 0 53 -34q38 -30 38 -38q0 -11 -11 -11q-7 0 -57 39q-11 8 -30 24q-5 3 -5 9z" />
    <glyph glyph-name="uacute" unicode="&#xfa;" 
d="M254 35l8 2q8 0 8 -7q0 -5 -8.5 -14.5t-17.5 -9.5q-19 0 -28 28q-7 21 -14 82q-34 -43 -46 -58q-21 -23 -48 -47q-22 -19 -35 -19q-28 0 -28 41q0 25 8 181q1 14 13 22t21 8q12 0 12 -9q0 4 -7 -28q-15 -69 -15 -165q0 -15 8 -15q9 0 51 47q60 67 60 94q0 31 -2 51.5
t-2 24.5q0 9 12.5 16.5t20.5 7.5q9 0 9 -11q0 -2 -1.5 -13.5t-1.5 -12.5q-2 -27 -2 -50q0 -47 6 -91q7 -55 19 -55zM220 391q0 -5 -19 -20q-68 -52 -73 -52q-11 0 -11 11q0 9 38 39q42 33 53 33q12 0 12 -11z" />
    <glyph glyph-name="ucircumflex" unicode="&#xfb;" 
d="M254 35l8 2q8 0 8 -7q0 -5 -8.5 -14.5t-17.5 -9.5q-19 0 -28 28q-7 21 -14 82q-34 -43 -46 -58q-21 -23 -48 -47q-22 -19 -35 -19q-28 0 -28 41q0 25 8 181q1 14 13 22t21 8q12 0 12 -9q0 4 -7 -28q-15 -69 -15 -165q0 -15 8 -15q9 0 51 47q60 67 60 94q0 31 -2 51.5
t-2 24.5q0 9 12.5 16.5t20.5 7.5q9 0 9 -11q0 -2 -1.5 -13.5t-1.5 -12.5q-2 -27 -2 -50q0 -47 6 -91q7 -55 19 -55zM158 361q-28 -23 -41 -35q-16 -15 -26 -15q-13 0 -13 9q0 11 68 64q-8 16 -8 17q0 5 9 10t12 5t10 -16q20 -47 46 -64q14 -9 14 -14q0 -9 -11 -9
q-16 0 -34 16t-26 32z" />
    <glyph glyph-name="udieresis" unicode="&#xfc;" 
d="M254 35l8 2q8 0 8 -7q0 -5 -8.5 -14.5t-17.5 -9.5q-19 0 -28 28q-7 21 -14 82q-34 -43 -46 -58q-21 -23 -48 -47q-22 -19 -35 -19q-28 0 -28 41q0 25 8 181q1 14 13 22t21 8q12 0 12 -9q0 4 -7 -28q-15 -69 -15 -165q0 -15 8 -15q9 0 51 47q60 67 60 94q0 31 -2 51.5
t-2 24.5q0 9 12.5 16.5t20.5 7.5q9 0 9 -11q0 -2 -1.5 -13.5t-1.5 -12.5q-2 -27 -2 -50q0 -47 6 -91q7 -55 19 -55zM140 406q11 0 11 -12q0 -5 -13 -48q-6 -19 -16 -19q-12 0 -12 12q0 8 10 43q7 24 20 24zM195 400q11 -1 11 -12q0 -5 -7 -31.5t-8 -28.5q-3 -14 -15 -14
t-12 11q0 -4 14 59q6 17 17 16z" />
    <glyph glyph-name="yacute" unicode="&#xfd;" 
d="M201 168q-67 -194 -111 -194q-28 0 -34 47q-9 69 -9 163q0 19 13 27.5t21 8.5q5 0 5 -6q0 -15 -4 -39q-3 -43 -3 -68q0 -104 14 -104q11 0 49 86q40 90 40 131q0 20 -14 48q-14 21 -14 20q0 5 13.5 12.5t16.5 7.5q17 0 41 -90q32 -121 32 -229q0 -200 -113 -200
q-60 0 -119 53q-54 50 -54 87q0 16 13 16q7 0 14 -20q14 -42 59.5 -77.5t90.5 -35.5q44 0 61 45t17 111q0 94 -25 200zM188 391q0 -5 -19 -20q-68 -52 -73 -52q-11 0 -11 11q0 9 38 39q42 33 53 33q12 0 12 -11z" />
    <glyph glyph-name="thorn" unicode="&#xfe;" 
d="M80 171q95 90 147 90q21 0 37 -12.5t16 -32.5q0 -58 -66 -133q-71 -79 -142 -87q-2 -28 -2 -68q0 -100 23 -100q2 0 10 4t9 4q7 0 7 -9q0 -7 -11 -15.5t-22 -8.5q-30 0 -40 43q-8 33 -8 113q0 100 20 279q19 172 29 181q16 15 32 15q10 0 10 -7q0 7 -17 -66
q-14 -58 -32 -190zM79 133q-9 -62 -7 -108q40 -8 107 62t67 123q0 25 -24 25q-45 0 -143 -102z" />
    <glyph glyph-name="ydieresis" unicode="&#xff;" 
d="M201 168q-67 -194 -111 -194q-28 0 -34 47q-9 69 -9 163q0 19 13 27.5t21 8.5q5 0 5 -6q0 -15 -4 -39q-3 -43 -3 -68q0 -104 14 -104q11 0 49 86q40 90 40 131q0 20 -14 48q-14 21 -14 20q0 5 13.5 12.5t16.5 7.5q17 0 41 -90q32 -121 32 -229q0 -200 -113 -200
q-60 0 -119 53q-54 50 -54 87q0 16 13 16q7 0 14 -20q14 -42 59.5 -77.5t90.5 -35.5q44 0 61 45t17 111q0 94 -25 200zM110 406q11 0 11 -12q0 -5 -13 -48q-6 -19 -16 -19q-12 0 -12 12q0 8 10 43q7 24 20 24zM165 400q11 -1 11 -12q0 -5 -7 -31.5t-8 -28.5q-3 -14 -15 -14
t-12 11q0 -4 14 59q6 17 17 16z" />
    <glyph glyph-name="dotlessi" unicode="&#x131;" horiz-adv-x="148" 
d="M69 129q0 -109 28 -114q16 -3 16 -8q0 -18 -29 -18q-27 0 -37 49q-9 44 -9 129q0 66 9 75q13 13 28 13q10 0 10 -9q0 9 -8 -28t-8 -89z" />
    <glyph glyph-name="Lslash" unicode="&#x141;" horiz-adv-x="389" 
d="M-10 -94l50 37q25 66 45 209l-65 -57q-9 -8 -15 -8q-11 0 -11 11q0 8 22 28q43 39 74 63q6 64 6 96q0 102 -35 137q-19 19 -19 23q0 15 36 15q55 0 55 -166q0 -23 -5 -76q111 78 155 78q11 0 11 -11q0 -10 -18 -15q-53 -15 -153 -87q-16 -126 -45 -215q141 94 237 94
q45 0 70 -17q18 -12 18 -21q0 -6 -10 -14t-17 -8t-23 15q-21 16 -47 16q-53 0 -139 -46q-80 -43 -144 -98q-17 -15 -23 -15t-14.5 7.5t-8.5 10.5q0 4 13 14z" />
    <glyph glyph-name="lslash" unicode="&#x142;" horiz-adv-x="130" 
d="M104 -3q-33 0 -47 48q-17 59 -17 128q-44 -35 -45 -35q-12 0 -12 13q0 5 13 17q9 8 42 36q0 8 -1 47t-1 45q0 87 6 97q5 16 34 16q9 0 9 -7q0 2 -7 -44q-9 -49 -11 -130q34 29 60 47q10 8 16 8q12 0 12 -12q0 -6 -8 -12q-30 -22 -79 -62q3 -119 18 -156q9 -23 35 -26
q5 -2 5 -6q0 -12 -22 -12z" />
    <glyph glyph-name="Zcaron" unicode="&#x17d;" horiz-adv-x="574" 
d="M337 233l-99 -102q163 -107 262 -107q18 0 27.5 4.5t14.5 4.5q40 0 40 -13q0 -8 -25 -16t-57 -8q-67 0 -151 38q-49 22 -135 75q-137 -120 -172 -120q-7 0 -17.5 8.5t-10.5 14.5q3 10 11 27q40 90 42 160q0 10 9 12q14 3 20 3q5 0 26 -12q41 -23 92 -55q62 60 81 82
q-24 -4 -48 -4q-22 0 -22 12q0 9 18 10q38 2 75 6q70 83 96 126q8 13 33 13q19 0 19 -8q0 -6 -108 -128q20 2 95 10q3 0 19.5 2t19.5 2q12 0 12 -11q0 -15 -28 -16q-34 -1 -139 -10zM137 80l52 45q-42 24 -90 57q-15 -88 -49 -163q21 11 87 61zM489 434q0 -5 -11 -14t-15 -9
q-20 7 -29 11q-27 8 -77 8q-94 0 -133 -33q-30 -26 -30 -58q0 -13 7 -24q7 -14 7 -17q0 -8 -20 -8q-30 0 -30 42q0 54 49 87.5t147 33.5q41 0 85 -5q50 -6 50 -14zM360 570q19 14 41 35q16 15 26 15q13 0 13 -10q0 -14 -68 -63l8 -17q0 -5 -9 -10t-12 -5q-4 0 -10 15
q-20 48 -46 65q-14 9 -14 14q0 9 11 9q16 0 34 -16t26 -32z" />
    <glyph glyph-name="zcaron" unicode="&#x17e;" horiz-adv-x="333" 
d="M145 72q-5 -4 -32 -27.5t-31 -26.5q-41 -33 -51 -33q-5 0 -12 6t-7 9t35 82q15 34 21 42q9 12 22 12q14 0 54 -30q33 32 112 119q-13 2 -51 0q-47 -3 -47 -14q0 -5 9.5 -7.5t9.5 -11.5q0 -15 -15 -15q-12 0 -22 9t-10 23q0 31 60 39q18 2 83 2q10 20 14 23.5t22 3.5
q12 0 12 -6q0 -16 -79 -103q-33 -34 -78 -80q48 -37 75 -51q43 -22 61 -22q1 0 11 3.5t12 3.5q9 0 9 -10q0 -20 -33 -20q-62 0 -154 80zM82 99l-37 -78q35 27 79 66q-26 22 -34 22q-2 0 -8 -10zM234 366q19 14 41 35q16 15 26 15q13 0 13 -10q0 -14 -68 -63l8 -17
q0 -5 -9 -10t-12 -5q-4 0 -10 15q-20 48 -46 65q-14 9 -14 14q0 9 11 9q16 0 34 -16t26 -32z" />
    <glyph glyph-name="caron" unicode="&#x2c7;" horiz-adv-x="148" 
d="M92 366q19 14 41 35q16 15 26 15q13 0 13 -10q0 -14 -68 -63l8 -17q0 -5 -9 -10t-12 -5q-4 0 -10 15q-20 48 -46 65q-14 9 -14 14q0 9 11 9q16 0 34 -16t26 -32z" />
    <glyph glyph-name="breve" unicode="&#x2d8;" horiz-adv-x="148" 
d="M175 389q0 -16 -17 -41q-24 -37 -65 -37t-68 37q-19 26 -19 40q0 5 7.5 10t11.5 5q3 0 10 -16q20 -48 58 -48q30 0 54 41q12 20 17 20q11 0 11 -11z" />
    <glyph glyph-name="dotaccent" unicode="&#x2d9;" horiz-adv-x="185" 
d="M111 376q28 0 28 -28t-28 -28t-28 28t28 28z" />
    <glyph glyph-name="ring" unicode="&#x2da;" horiz-adv-x="148" 
d="M110 422q1 1 2.5 3t4 3.5t7.5 1.5q13 0 24 -11.5t11 -30.5q0 -28 -18 -51q-21 -25 -53 -25q-47 0 -47 47q0 28 18.5 48t36.5 20q4 0 14 -5zM108 400q-7 2 -9 2q-9 0 -20 -12t-11 -29q0 -24 23 -24q21 0 33 18q9 14 9 30q0 20 -14 20q-12 -5 -11 -5z" />
    <glyph glyph-name="ogonek" unicode="&#x2db;" horiz-adv-x="148" 
d="M106 19q-16 -24 -37 -57q-17 -29 -17 -40q0 -21 21 -21q14 0 24 7l26 13q7 0 7 -7q0 -12 -22.5 -25.5t-43.5 -13.5q-38 0 -38 41q0 29 31 71q29 38 42 38q7 0 7 -6z" />
    <glyph glyph-name="hungarumlaut" unicode="&#x2dd;" horiz-adv-x="148" 
d="M40 314q-11 0 -11 11q0 8 31 39q41 40 52 40q12 0 12 -8t-53 -57q-8 -8 -20 -19q-6 -6 -11 -6zM165 352l-27 -26q-11 -11 -20 -11q-11 0 -11 9q0 13 37.5 46.5t50.5 33.5q9 0 9 -10q0 -4 -39 -42z" />
    <glyph glyph-name="mu" unicode="&#xb5;" 
d="M253 35l8 2q8 0 8 -7q0 -5 -8.5 -14.5t-17.5 -9.5q-20 0 -29 31q-6 18 -13 79q-47 -62 -89 -100q-28 -25 -33 -25q-1 0 -6 3q1 -43 5 -102q0 -2 4.5 -13t4.5 -13q0 -7 -11 -17.5t-16 -10.5q-11 0 -14 43q-2 30 -2 100q0 1 6 172q1 33 3 69q2 6 12.5 14t20.5 8q12 0 12 -9
q0 9 -7 -28q-15 -79 -15 -165q0 -15 8 -15q10 0 52 48q59 68 59 93q0 27 -2 59q0 1 -1 8t-1 9q0 9 14 17q11 7 19 7q10 0 10 -11q0 -10 -4 -26q-2 -23 -2 -50q0 -46 6 -91q8 -55 19 -55z" />
    <glyph glyph-name="mu" unicode="&#x3bc;" 
d="M253 35l8 2q8 0 8 -7q0 -5 -8.5 -14.5t-17.5 -9.5q-20 0 -29 31q-6 18 -13 79q-47 -62 -89 -100q-28 -25 -33 -25q-1 0 -6 3q1 -43 5 -102q0 -2 4.5 -13t4.5 -13q0 -7 -11 -17.5t-16 -10.5q-11 0 -14 43q-2 30 -2 100q0 1 6 172q1 33 3 69q2 6 12.5 14t20.5 8q12 0 12 -9
q0 9 -7 -28q-15 -79 -15 -165q0 -15 8 -15q10 0 52 48q59 68 59 93q0 27 -2 59q0 1 -1 8t-1 9q0 9 14 17q11 7 19 7q10 0 10 -11q0 -10 -4 -26q-2 -23 -2 -50q0 -46 6 -91q8 -55 19 -55z" />
    <glyph glyph-name="fraction" unicode="&#x2044;" horiz-adv-x="370" 
d="M47 -11q0 41 76 145q134 183 204 257q6 6 35 6q8 0 8 -5q0 -10 -17 -21q-83 -90 -173 -212q-96 -131 -96 -159q0 -8 7 -12.5t7 -7.5q0 -15 -24 -15q-27 0 -27 24z" />
    <glyph glyph-name="fi" unicode="&#xf001;" horiz-adv-x="352" 
d="M91 48l-6 122q-68 -34 -64 -34q-3 0 -8.5 4.5t-5.5 8.5q0 12 78 48q-5 131 15 193q23 72 68 72q22 0 22 -16q0 -9 -6.5 -17.5t-10.5 -8.5q2 0 -12 4q-15 0 -28 -40q-20 -59 -15 -173q79 35 157 35q18 0 18 -12l-8 -44q-6 -33 -6 -73q0 -85 12 -98q3 -3 19 -5q10 -2 10 -8
t-10.5 -11.5t-19.5 -5.5q-20 0 -28 20q-14 30 -14 117q0 10 5 75l1 13q0 3 -5 3q-62 0 -130 -32q8 -208 27 -275q18 -62 44 -62q2 0 12 3t11 3q7 0 7 -6t-9.5 -12.5t-22.5 -6.5q-86 0 -97 219zM285 352q0 -14 1 -19q0 -1 1 -5.5t1 -5.5q0 -9 -15 -9q-17 0 -19 31q0 -5 0 42
q0 20 30 20q9 0 9 -6q0 -3 -6 -24q-2 -11 -2 -24z" />
    <glyph glyph-name="fl" unicode="&#xf002;" horiz-adv-x="352" 
d="M122 188q7 -179 21 -251q17 -89 51 -89q2 0 11.5 3t10.5 3q7 0 7 -7q0 -5 -9 -11.5t-23 -6.5q-60 0 -84 125q-14 74 -18 219q-4 -2 -37 -20q-29 -17 -31 -17q-14 0 -14 13q0 8 22.5 21t58.5 30q-4 135 17 194q24 68 67 68q21 0 21 -16q0 -10 -6.5 -18t-10.5 -8q-1 0 -6 2
t-6 2q-22 0 -36 -71q-9 -45 -7 -139q71 25 98 25q12 0 12 -8q0 -12 -15 -21q-11 -6 -17 -6q-1 0 -6 2t-6 2q-19 0 -65 -20zM333 9q0 -12 -22 -12q-44 0 -57 99q-11 82 -11 196q0 93 8.5 105t31.5 12q9 0 9 -10q0 5 -8 -42q-9 -53 -9 -135q0 -168 28 -197q8 -8 26 -10
q4 -1 4 -6z" />
    <glyph glyph-name="glyph231" horiz-adv-x="185" 
 />
  </font>
</defs>
</svg>
